<svg version="1.1" id="Layer_1" xmlns="http://www.w3.org/2000/svg" xmlns:xlink="http://www.w3.org/1999/xlink" x="0px" y="0px"
	 width="100%" viewBox="0 0 180 180" enable-background="new 0 0 180 180" xml:space="preserve">
<path fill="#FCFCFC" opacity="1.000000" stroke="none" 
	d="
M1.000000,105.000000 
	C1.000000,104.555557 1.000000,104.111107 1.357511,103.291931 
	C2.605257,101.077301 4.027857,99.295578 4.237009,97.381264 
	C4.449022,95.440781 3.080318,93.372765 3.061934,91.354607 
	C2.941714,78.157104 2.746316,64.951500 3.082621,51.761471 
	C3.338854,41.711948 4.245355,31.672430 5.170013,21.656847 
	C5.261022,20.671074 7.505983,19.884161 8.829412,19.467171 
	C8.858117,26.284014 8.808593,32.638630 8.380489,39.008995 
	C7.324118,39.412144 6.072645,39.775360 6.055136,40.190605 
	C5.816650,45.846535 5.649342,51.511940 5.778020,57.167873 
	C5.792473,57.803135 7.720297,58.394867 8.840977,59.468674 
	C8.872705,69.585793 8.824285,79.241013 8.368722,89.061798 
	C6.816844,92.287743 5.547468,95.359680 8.856929,98.426971 
	C8.998247,100.789955 9.058916,102.740547 9.091106,105.075897 
	C9.161834,108.426048 10.587030,108.436218 12.511159,106.920624 
	C15.835569,104.302063 19.358780,101.862061 22.310083,98.865952 
	C24.883654,96.253304 26.783663,92.977173 29.123915,89.704285 
	C30.174999,88.931633 31.083450,88.448883 32.237637,88.249634 
	C36.356518,87.906624 41.576069,89.948067 42.909451,84.007019 
	C44.308765,77.772179 45.155262,77.236221 51.026138,80.658257 
	C51.665585,77.019615 50.940639,72.129005 57.395580,72.998634 
	C59.926048,73.592239 62.061394,74.184166 64.823494,74.949821 
	C64.525307,71.700783 64.263573,68.848900 64.254303,65.887466 
	C64.985985,65.509575 65.465195,65.241234 66.254669,64.961212 
	C67.049919,64.616783 67.534897,64.284019 68.349754,63.955383 
	C69.119385,63.969990 69.559135,63.980473 70.047989,64.313911 
	C71.552681,64.530739 73.008270,64.424614 74.463867,64.318481 
	C73.965408,63.878010 73.466949,63.437527 72.867065,62.716095 
	C74.503639,60.608585 76.241638,58.782028 78.115471,56.853241 
	C78.251305,56.751011 78.590515,56.727654 78.940613,56.800282 
	C79.804344,56.491474 80.317970,56.110035 80.912109,55.832809 
	C80.992622,55.937023 80.804520,55.752686 81.219467,55.836971 
	C82.753372,55.932079 83.872330,55.942905 84.992432,55.970955 
	C84.993568,55.988182 84.994034,56.022709 85.028137,56.312622 
	C85.709885,56.732742 86.357529,56.862949 87.336525,56.993927 
	C88.109566,56.996296 88.551270,56.997898 89.195358,57.275154 
	C93.297676,63.326199 98.319489,59.240791 102.685844,58.749165 
	C110.734428,57.842937 111.225075,57.009922 112.613266,49.202267 
	C116.280075,48.492729 120.140343,47.745758 124.453156,46.999008 
	C129.212372,46.205017 133.514145,45.382908 137.827621,44.627567 
	C140.227859,44.207264 142.685303,43.433731 145.051468,43.625889 
	C152.226120,44.208546 159.613831,46.624905 165.868423,40.947075 
	C167.983505,39.027035 172.091644,38.355556 171.092255,33.776466 
	C171.394928,33.283253 171.652420,33.092365 172.366531,32.989254 
	C176.920654,33.071766 176.433945,30.158640 176.671860,27.267162 
	C175.197800,27.562485 174.110718,27.780281 173.017151,27.535065 
	C173.006912,23.048204 173.003159,19.024357 173.367310,14.960262 
	C174.861618,14.122123 175.988037,13.324230 177.114456,12.526338 
	C176.945786,12.016079 176.777130,11.505821 176.608459,10.995563 
	C174.740402,10.995563 172.872330,10.995563 171.007904,10.627653 
	C173.007675,7.173162 175.003830,4.086579 177.000000,0.999998 
	C178.331985,1.000000 179.663986,1.000000 180.996979,1.000000 
	C180.997986,60.938263 180.997986,120.876526 180.997986,180.907394 
	C121.122261,180.907394 61.244331,180.907394 1.000000,180.907394 
	C1.000000,157.647049 1.000000,134.292191 1.352713,110.505913 
	C3.188740,110.970947 4.672055,111.867386 6.463791,112.950218 
	C8.118154,107.412735 3.074168,107.271385 1.000000,105.000000 
M138.497604,58.908688 
	C138.497604,58.908688 138.654892,58.701591 138.654892,58.701591 
	C138.654892,58.701591 138.805649,59.073059 138.250076,59.113358 
	C137.597641,59.425716 136.945206,59.738075 135.414047,60.073246 
	C131.921799,61.329357 128.429535,62.585468 124.250717,63.900448 
	C122.821220,64.553917 121.391716,65.207382 119.212952,65.890266 
	C114.473259,67.978668 109.733566,70.067062 104.309631,72.222305 
	C101.505791,73.717697 98.701950,75.213089 95.254166,76.821846 
	C94.794106,77.448715 94.334045,78.075584 93.138443,78.769341 
	C91.052765,79.748299 88.967087,80.727264 86.185219,81.854149 
	C83.094727,83.821350 80.004234,85.788559 76.255539,87.874763 
	C75.159271,88.881844 74.062996,89.888916 72.237823,90.976685 
	C68.872063,92.773491 65.424698,94.437538 62.180321,96.431831 
	C60.865227,97.240211 59.992550,98.768333 58.306080,100.187355 
	C57.854099,100.623550 57.402119,101.059746 56.570301,101.255684 
	C56.570301,101.255684 56.238400,101.558372 56.238400,101.558372 
	C56.238400,101.558372 56.405884,101.975449 55.955318,102.518532 
	C41.960445,113.879875 29.106161,126.395462 18.267803,140.827087 
	C14.909372,145.298965 11.599881,150.112167 9.681197,155.292511 
	C6.444969,164.030151 10.857957,170.945969 19.133322,170.963440 
	C52.086628,171.033005 85.040337,170.910538 118.882500,171.021072 
	C121.587105,170.973969 124.291702,170.926865 127.893646,171.036072 
	C130.927780,170.986649 133.961899,170.937225 137.919220,171.041321 
	C142.944885,170.974991 147.970535,170.908661 153.820175,170.996033 
	C155.212524,170.943893 156.604858,170.891739 158.795135,170.994873 
	C160.864670,170.669998 162.934219,170.345123 165.714264,170.000122 
	C171.899078,166.712433 171.152176,160.973709 171.030563,154.571854 
	C170.983170,151.382843 170.935776,148.193832 171.041672,144.179245 
	C170.990326,142.784622 170.938980,141.389999 171.025101,139.171295 
	C170.970871,137.783005 170.916641,136.394714 171.017975,134.090546 
	C170.972458,130.061798 170.926956,126.033043 171.026520,121.078369 
	C170.962112,115.720573 170.897690,110.362785 170.982651,104.085480 
	C170.936508,99.725479 170.890366,95.365479 170.997787,90.100830 
	C170.950211,86.737167 170.902618,83.373512 170.995102,79.080452 
	C170.995102,69.913147 170.995102,60.745842 170.995102,50.958981 
	C164.495071,52.501560 158.740036,53.867336 152.447205,55.141247 
	C152.086060,55.147175 151.724915,55.153103 150.769394,54.923382 
	C149.540924,55.450981 148.312469,55.978584 146.436310,56.824009 
	C145.957428,56.846264 145.478531,56.868519 144.886581,56.275215 
	C144.557251,56.013821 144.227905,55.752426 143.898560,55.491028 
	C143.650269,56.154743 143.401962,56.818459 142.654404,57.811947 
	C141.752441,58.165524 140.850464,58.519096 139.326782,58.816940 
	C139.134781,58.897125 138.942764,58.977314 138.497604,58.908688 
M155.687103,47.494843 
	C157.244278,48.499504 158.801453,49.504166 160.828445,50.811935 
	C161.129074,46.126801 158.367371,47.140110 155.687103,47.494843 
M135.635437,57.475220 
	C135.843781,57.529041 136.052109,57.582859 136.260452,57.636677 
	C136.126602,57.504700 135.992752,57.372723 135.635437,57.475220 
M149.818146,50.734634 
	C149.973434,50.621979 150.128708,50.509319 150.283997,50.396667 
	C150.068329,50.419231 149.852676,50.441795 149.818146,50.734634 
z"/>
<path fill="#FAFCF8" opacity="1.000000" stroke="none" 
	d="
M8.751184,19.004946 
	C7.505983,19.884161 5.261022,20.671074 5.170013,21.656847 
	C4.245355,31.672430 3.338854,41.711948 3.082621,51.761471 
	C2.746316,64.951500 2.941714,78.157104 3.061934,91.354607 
	C3.080318,93.372765 4.449022,95.440781 4.237009,97.381264 
	C4.027857,99.295578 2.605257,101.077301 1.357511,102.958603 
	C1.000000,69.053574 1.000000,35.107147 1.000000,1.000000 
	C59.354130,1.000000 117.708405,1.000000 176.531342,0.999998 
	C175.003830,4.086579 173.007675,7.173162 171.004929,10.630481 
	C170.998337,11.001217 170.990845,11.006401 170.677307,10.847586 
	C167.990631,9.462097 165.654083,7.267791 163.238052,7.176480 
	C152.854401,6.784043 142.446548,6.946737 132.049911,7.086124 
	C130.681580,7.104469 129.327072,8.154626 127.521523,8.796614 
	C124.372971,8.819731 121.669060,8.773133 118.766541,8.527215 
	C117.723648,8.460277 116.879372,8.592659 115.569168,8.792988 
	C108.387711,8.818219 101.672195,8.775504 94.660263,8.504088 
	C91.923798,8.428836 89.483742,8.582284 86.579979,8.799328 
	C81.729591,8.826326 77.342911,8.789727 72.628830,8.510147 
	C64.540436,8.446909 56.779442,8.626652 48.554070,8.876526 
	C42.385860,8.900326 36.682030,8.853993 30.712009,8.572409 
	C28.638823,8.493725 26.831825,8.650294 24.583620,8.872637 
	C21.766241,8.904454 19.390070,8.870501 16.933262,8.494868 
	C13.540453,5.553156 11.184436,7.982048 9.675732,10.213919 
	C8.475912,11.988850 5.669282,14.372726 8.874058,17.349863 
	C8.865085,18.122927 8.808134,18.563936 8.751184,19.004946 
z"/>
<path fill="#FAFCF8" opacity="1.000000" stroke="none" 
	d="
M1.000000,105.416664 
	C3.074168,107.271385 8.118154,107.412735 6.463791,112.950218 
	C4.672055,111.867386 3.188740,110.970947 1.352713,110.037254 
	C1.000000,108.611107 1.000000,107.222221 1.000000,105.416664 
z"/>
<path fill="#080908" opacity="1.000000" stroke="none" 
	d="
M56.950138,101.495941 
	C57.402119,101.059746 57.854099,100.623550 58.953342,100.094780 
	C61.367645,102.721771 63.023857,105.521812 64.927017,108.142525 
	C67.976761,112.342102 70.805794,116.801971 74.421661,120.467697 
	C80.293373,126.420326 86.130775,132.218521 89.056686,140.340149 
	C89.661301,142.018387 91.295967,143.389862 92.632881,144.725571 
	C94.901825,146.992462 97.317902,149.111679 99.660858,151.305023 
	C105.973785,157.214767 107.275124,167.975082 117.681015,169.953705 
	C117.837059,169.983383 117.891853,170.545532 117.993896,170.859161 
	C85.040337,170.910538 52.086628,171.033005 19.133322,170.963440 
	C10.857957,170.945969 6.444969,164.030151 9.681197,155.292511 
	C11.599881,150.112167 14.909372,145.298965 18.267803,140.827087 
	C29.106161,126.395462 41.960445,113.879875 56.302399,102.208282 
	C56.802696,101.803642 56.902916,101.669609 56.950138,101.495941 
z"/>
<path fill="#101010" opacity="1.000000" stroke="none" 
	d="
M118.438202,170.940125 
	C117.891853,170.545532 117.837059,169.983383 117.681015,169.953705 
	C107.275124,167.975082 105.973785,157.214767 99.660858,151.305023 
	C97.317902,149.111679 94.901825,146.992462 92.632881,144.725571 
	C91.295967,143.389862 89.661301,142.018387 89.056686,140.340149 
	C86.130775,132.218521 80.293373,126.420326 74.421661,120.467697 
	C70.805794,116.801971 67.976761,112.342102 64.927017,108.142525 
	C63.023857,105.521812 61.367645,102.721771 59.259583,99.985580 
	C59.992550,98.768333 60.865227,97.240211 62.180321,96.431831 
	C65.424698,94.437538 68.872063,92.773491 72.615372,91.317795 
	C77.258125,97.926117 81.478188,104.224785 85.812157,110.444084 
	C87.405701,112.730827 89.222427,114.868851 91.024353,117.001198 
	C92.244072,118.444588 93.639801,119.737770 94.909988,121.140541 
	C95.639412,121.946106 96.361969,122.781693 96.939316,123.697273 
	C100.646057,129.575623 103.917679,135.779297 108.104797,141.289001 
	C112.073486,146.511292 116.977112,151.024933 121.488991,155.832001 
	C125.467697,160.070999 126.378220,165.418442 126.996307,170.879761 
	C124.291702,170.926865 121.587105,170.973969 118.438202,170.940125 
z"/>
<path fill="#303030" opacity="1.000000" stroke="none" 
	d="
M170.888382,145.004822 
	C170.935776,148.193832 170.983170,151.382843 170.542297,154.863754 
	C167.543045,152.110168 165.160461,148.946259 162.488464,146.049301 
	C159.182556,142.465073 155.615250,139.123016 152.215607,135.623169 
	C151.665848,135.057190 151.240097,134.259735 151.027496,133.494186 
	C148.519180,124.462868 141.903488,118.039322 135.804459,111.747482 
	C130.580627,106.358513 129.093704,97.936539 121.467827,94.684311 
	C120.871078,94.429817 120.612892,93.302910 120.267792,92.549217 
	C117.433739,86.359879 113.822212,80.687256 107.858620,77.157013 
	C105.641457,75.844536 103.988960,74.971741 104.993874,72.155464 
	C109.733566,70.067062 114.473259,67.978668 119.630417,66.247704 
	C124.856682,74.148766 129.464203,81.831848 134.555557,89.179688 
	C137.275772,93.105522 141.050186,96.286583 143.947464,100.108063 
	C146.866882,103.958786 149.131073,108.300552 151.963882,112.223892 
	C157.079712,119.309151 162.362152,126.276192 167.696350,133.199112 
	C168.380753,134.087372 169.789322,134.417648 170.862411,135.006424 
	C170.916641,136.394714 170.970871,137.783005 170.608810,139.662384 
	C168.293823,142.076202 168.136276,143.749191 170.888382,145.004822 
z"/>
<path fill="#1C1C1C" opacity="1.000000" stroke="none" 
	d="
M152.996201,170.842331 
	C147.970535,170.908661 142.944885,170.974991 137.461563,170.567871 
	C134.287537,164.392776 132.242355,158.227356 128.698059,153.097763 
	C123.336288,145.337769 116.716171,138.460648 111.026299,130.910294 
	C104.895905,122.775383 99.990471,113.565788 93.043388,106.257874 
	C89.215187,102.230843 87.346069,94.586166 79.629997,95.732368 
	C78.614548,92.750381 77.764153,90.253075 76.913750,87.755768 
	C80.004234,85.788559 83.094727,83.821350 86.681305,82.144676 
	C88.463783,84.289139 89.559784,86.321419 91.085991,87.950729 
	C92.891396,89.878098 95.441017,91.177795 96.997986,93.252434 
	C99.439377,96.505577 101.134773,100.310944 103.493126,103.636330 
	C105.515335,106.487747 108.190186,108.872055 110.263084,111.693169 
	C111.818672,113.810249 112.388222,116.831085 114.244232,118.516075 
	C121.008461,124.657028 127.086487,131.161987 130.090439,140.043823 
	C130.437180,141.068985 131.492798,141.862503 132.246231,142.740707 
	C138.341858,149.845947 144.570679,156.843231 150.452667,164.120941 
	C151.882980,165.890640 152.178757,168.577301 152.996201,170.842331 
z"/>
<path fill="#292929" opacity="1.000000" stroke="none" 
	d="
M104.651749,72.188889 
	C103.988960,74.971741 105.641457,75.844536 107.858620,77.157013 
	C113.822212,80.687256 117.433739,86.359879 120.267792,92.549217 
	C120.612892,93.302910 120.871078,94.429817 121.467827,94.684311 
	C129.093704,97.936539 130.580627,106.358513 135.804459,111.747482 
	C141.903488,118.039322 148.519180,124.462868 151.027496,133.494186 
	C151.240097,134.259735 151.665848,135.057190 152.215607,135.623169 
	C155.615250,139.123016 159.182556,142.465073 162.488464,146.049301 
	C165.160461,148.946259 167.543045,152.110168 170.465179,155.278595 
	C171.152176,160.973709 171.899078,166.712433 165.223083,169.686691 
	C164.488754,168.249466 164.245605,167.125687 164.272064,165.977020 
	C164.898911,165.714096 165.256134,165.476013 165.613342,165.237946 
	C165.468124,165.058304 165.322906,164.878662 165.177673,164.699020 
	C164.784622,165.132050 164.391556,165.565094 163.643509,165.933624 
	C160.979858,162.857742 158.732910,159.796463 156.348068,156.846664 
	C152.775864,152.428207 149.096588,148.096436 145.498260,143.698822 
	C145.209610,143.346054 145.104202,142.776215 145.066650,142.295303 
	C144.552704,135.715027 138.492950,132.989853 135.234085,128.326218 
	C130.855728,122.060509 125.724365,116.325775 121.066490,110.247948 
	C119.503532,108.208519 118.606911,105.658646 117.045135,103.618065 
	C113.563972,99.069633 109.859840,94.691650 106.238205,90.251030 
	C103.725075,87.169601 101.153168,84.134758 98.698204,81.007896 
	C97.646164,79.667931 96.824463,78.147125 95.898109,76.708481 
	C98.701950,75.213089 101.505791,73.717697 104.651749,72.188889 
z"/>
<path fill="#161616" opacity="1.000000" stroke="none" 
	d="
M76.584641,87.815262 
	C77.764153,90.253075 78.614548,92.750381 79.629997,95.732368 
	C87.346069,94.586166 89.215187,102.230843 93.043388,106.257874 
	C99.990471,113.565788 104.895905,122.775383 111.026299,130.910294 
	C116.716171,138.460648 123.336288,145.337769 128.698059,153.097763 
	C132.242355,158.227356 134.287537,164.392776 136.999969,170.491119 
	C133.961899,170.937225 130.927780,170.986649 127.444977,170.957916 
	C126.378220,165.418442 125.467697,160.070999 121.488991,155.832001 
	C116.977112,151.024933 112.073486,146.511292 108.104797,141.289001 
	C103.917679,135.779297 100.646057,129.575623 96.939316,123.697273 
	C96.361969,122.781693 95.639412,121.946106 94.909988,121.140541 
	C93.639801,119.737770 92.244072,118.444588 91.024353,117.001198 
	C89.222427,114.868851 87.405701,112.730827 85.812157,110.444084 
	C81.478188,104.224785 77.258125,97.926117 72.979813,91.277451 
	C74.062996,89.888916 75.159271,88.881844 76.584641,87.815262 
z"/>
<path fill="#212121" opacity="1.000000" stroke="none" 
	d="
M153.408188,170.919189 
	C152.178757,168.577301 151.882980,165.890640 150.452667,164.120941 
	C144.570679,156.843231 138.341858,149.845947 132.246231,142.740707 
	C131.492798,141.862503 130.437180,141.068985 130.090439,140.043823 
	C127.086487,131.161987 121.008461,124.657028 114.244232,118.516075 
	C112.388222,116.831085 111.818672,113.810249 110.263084,111.693169 
	C108.190186,108.872055 105.515335,106.487747 103.493126,103.636330 
	C101.134773,100.310944 99.439377,96.505577 96.997986,93.252434 
	C95.441017,91.177795 92.891396,89.878098 91.085991,87.950729 
	C89.559784,86.321419 88.463783,84.289139 87.029388,82.070717 
	C88.967087,80.727264 91.052765,79.748299 93.564255,79.105743 
	C94.262634,80.040352 94.491676,80.663193 94.814186,81.233139 
	C101.536972,93.113625 112.507759,102.118195 117.716286,115.040771 
	C118.063049,115.901077 119.090561,116.467918 119.725784,117.234001 
	C125.929337,124.715469 132.207153,132.138000 138.278366,139.725677 
	C142.634216,145.169556 147.029175,150.631790 150.802917,156.475708 
	C153.690613,160.947495 155.633881,166.029175 157.997223,170.839600 
	C156.604858,170.891739 155.212524,170.943893 153.408188,170.919189 
z"/>
<path fill="#373738" opacity="1.000000" stroke="none" 
	d="
M170.940186,134.548492 
	C169.789322,134.417648 168.380753,134.087372 167.696350,133.199112 
	C162.362152,126.276192 157.079712,119.309151 151.963882,112.223892 
	C149.131073,108.300552 146.866882,103.958786 143.947464,100.108063 
	C141.050186,96.286583 137.275772,93.105522 134.555557,89.179688 
	C129.464203,81.831848 124.856682,74.148766 120.005051,66.233002 
	C121.391716,65.207382 122.821220,64.553917 124.767929,64.134308 
	C126.349045,64.433754 127.412949,64.499352 127.419212,64.499733 
	C128.532791,67.004990 129.090073,69.104385 130.271957,70.757133 
	C133.650208,75.481255 137.961227,79.662224 140.656570,84.722054 
	C144.788696,92.479034 151.534119,97.977158 156.468094,104.974777 
	C160.036194,110.035248 163.526291,115.154793 167.251785,120.096764 
	C167.995834,121.083771 169.648010,121.386200 170.881439,122.004295 
	C170.926956,126.033043 170.972458,130.061798 170.940186,134.548492 
z"/>
<path fill="#3C3D3E" opacity="1.000000" stroke="none" 
	d="
M170.953979,121.541336 
	C169.648010,121.386200 167.995834,121.083771 167.251785,120.096764 
	C163.526291,115.154793 160.036194,110.035248 156.468094,104.974777 
	C151.534119,97.977158 144.788696,92.479034 140.656570,84.722054 
	C137.961227,79.662224 133.650208,75.481255 130.271957,70.757133 
	C129.090073,69.104385 128.532791,67.004990 127.419212,64.499733 
	C127.412949,64.499352 126.349045,64.433754 125.111221,64.104874 
	C128.429535,62.585468 131.921799,61.329357 135.772949,60.528786 
	C136.888428,65.980202 136.784973,71.477180 143.348679,73.024551 
	C143.902893,73.155212 144.479858,73.683327 144.813202,74.182449 
	C149.343323,80.965302 153.645172,87.909897 158.396667,94.532387 
	C161.600540,98.997826 164.494156,104.134064 170.833282,105.004990 
	C170.897690,110.362785 170.962112,115.720573 170.953979,121.541336 
z"/>
<path fill="#232323" opacity="1.000000" stroke="none" 
	d="
M158.396179,170.917236 
	C155.633881,166.029175 153.690613,160.947495 150.802917,156.475708 
	C147.029175,150.631790 142.634216,145.169556 138.278366,139.725677 
	C132.207153,132.138000 125.929337,124.715469 119.725784,117.234001 
	C119.090561,116.467918 118.063049,115.901077 117.716286,115.040771 
	C112.507759,102.118195 101.536972,93.113625 94.814186,81.233139 
	C94.491676,80.663193 94.262634,80.040352 93.932022,79.072296 
	C94.334045,78.075584 94.794106,77.448715 95.576141,76.765167 
	C96.824463,78.147125 97.646164,79.667931 98.698204,81.007896 
	C101.153168,84.134758 103.725075,87.169601 106.238205,90.251030 
	C109.859840,94.691650 113.563972,99.069633 117.045135,103.618065 
	C118.606911,105.658646 119.503532,108.208519 121.066490,110.247948 
	C125.724365,116.325775 130.855728,122.060509 135.234085,128.326218 
	C138.492950,132.989853 144.552704,135.715027 145.066650,142.295303 
	C145.104202,142.776215 145.209610,143.346054 145.498260,143.698822 
	C149.096588,148.096436 152.775864,152.428207 156.348068,156.846664 
	C158.732910,159.796463 160.979858,162.857742 163.644257,165.934570 
	C164.000000,166.000000 164.002441,166.001892 164.002441,166.001892 
	C164.245605,167.125687 164.488754,168.249466 164.867828,169.696747 
	C162.934219,170.345123 160.864670,170.669998 158.396179,170.917236 
z"/>
<path fill="#454647" opacity="1.000000" stroke="none" 
	d="
M139.948502,58.872665 
	C140.850464,58.519096 141.752441,58.165524 143.240173,57.656219 
	C144.217178,57.297253 144.608414,57.094013 144.999649,56.890770 
	C145.478531,56.868519 145.957428,56.846264 147.087479,56.715092 
	C148.947021,56.123795 150.155396,55.641415 151.363770,55.159035 
	C151.724915,55.153103 152.086060,55.147175 152.716217,55.575050 
	C155.237152,61.336456 157.461060,66.676399 159.789780,71.970230 
	C159.994980,72.436737 160.917267,72.911163 161.452774,72.856400 
	C164.874557,72.506531 165.894363,74.909805 167.263779,77.306847 
	C167.946411,78.501755 169.626266,79.126953 170.855042,80.009850 
	C170.902618,83.373512 170.950211,86.737167 170.587280,90.616333 
	C166.063934,95.145836 164.642822,94.751556 162.540207,89.169495 
	C161.972931,87.663513 161.306534,86.089127 160.291565,84.875786 
	C155.817734,79.527573 151.055511,74.414810 146.714767,68.964294 
	C145.252029,67.127586 144.726700,64.544334 143.317352,61.231297 
	C142.992401,61.003796 141.470459,59.938229 139.948502,58.872665 
z"/>
<path fill="#404143" opacity="1.000000" stroke="none" 
	d="
M139.637634,58.844803 
	C141.470459,59.938229 142.992401,61.003796 143.317352,61.231297 
	C144.726700,64.544334 145.252029,67.127586 146.714767,68.964294 
	C151.055511,74.414810 155.817734,79.527573 160.291565,84.875786 
	C161.306534,86.089127 161.972931,87.663513 162.540207,89.169495 
	C164.642822,94.751556 166.063934,95.145836 170.510498,91.068657 
	C170.890366,95.365479 170.936508,99.725479 170.907959,104.545235 
	C164.494156,104.134064 161.600540,98.997826 158.396667,94.532387 
	C153.645172,87.909897 149.343323,80.965302 144.813202,74.182449 
	C144.479858,73.683327 143.902893,73.155212 143.348679,73.024551 
	C136.784973,71.477180 136.888428,65.980202 136.212311,60.517380 
	C136.945206,59.738075 137.597641,59.425716 138.513062,59.071465 
	C138.776062,59.029572 138.750763,59.057507 138.750763,59.057507 
	C138.942764,58.977314 139.134781,58.897125 139.637634,58.844803 
z"/>
<path fill="#4F5051" opacity="1.000000" stroke="none" 
	d="
M170.925079,79.545151 
	C169.626266,79.126953 167.946411,78.501755 167.263779,77.306847 
	C165.894363,74.909805 164.874557,72.506531 161.452774,72.856400 
	C160.917267,72.911163 159.994980,72.436737 159.789780,71.970230 
	C157.461060,66.676399 155.237152,61.336456 152.985107,55.620979 
	C158.740036,53.867336 164.495071,52.501560 170.995102,50.958981 
	C170.995102,60.745842 170.995102,69.913147 170.925079,79.545151 
z"/>
<path fill="#B75C43" opacity="1.000000" stroke="none" 
	d="
M30.978201,8.807662 
	C36.682030,8.853993 42.385860,8.900326 48.990715,8.963870 
	C52.261986,9.061292 54.632225,9.141500 56.999664,9.419901 
	C56.996857,9.618093 56.988678,10.014495 56.521446,10.012868 
	C50.359016,10.043928 44.663818,10.076614 38.533829,10.086687 
	C36.066509,10.085407 34.033989,10.106742 31.535906,10.098731 
	C27.808559,10.057923 24.545610,10.096879 21.285295,10.021595 
	C17.624952,9.937072 15.072608,11.376651 13.963995,15.239462 
	C13.954105,15.476713 13.926049,15.950799 13.715523,16.072405 
	C13.246625,16.406601 13.068036,16.672731 12.576274,17.087452 
	C11.785836,18.685356 11.046415,20.187212 11.042014,21.691217 
	C10.972933,45.300213 10.993834,68.909492 11.015355,92.518677 
	C11.016521,93.798393 11.205210,95.077942 11.452287,98.196007 
	C14.297864,95.504051 16.147436,93.754333 18.297619,91.859634 
	C20.021812,90.360260 21.238958,88.613121 22.912159,87.733597 
	C26.345474,85.928864 28.095558,80.882576 33.106209,82.602219 
	C28.050770,87.299171 23.085199,91.674530 17.874115,96.132416 
	C17.421986,96.484901 17.215366,96.754868 16.752041,97.077431 
	C16.304653,97.404938 16.113972,97.679840 15.957422,97.973694 
	C15.991553,97.992645 15.957264,97.922501 15.697436,97.994949 
	C15.219330,98.346581 15.001050,98.625755 14.493052,99.076752 
	C12.508748,101.062767 10.814166,102.876953 9.119585,104.691139 
	C9.058916,102.740547 8.998247,100.789955 8.934282,97.999542 
	C8.879279,94.405228 8.827572,91.650726 8.775866,88.896233 
	C8.824285,79.241013 8.872705,69.585793 8.924540,59.006313 
	C8.871659,51.719120 8.815364,45.356186 8.759068,38.993248 
	C8.808593,32.638630 8.858117,26.284014 8.829412,19.467171 
	C8.808134,18.563936 8.865085,18.122927 9.009560,17.016556 
	C11.736022,13.846313 14.374961,11.341430 17.013901,8.836546 
	C19.390070,8.870501 21.766241,8.904454 25.002754,8.957430 
	C27.568134,8.920188 29.273167,8.863925 30.978201,8.807662 
z"/>
<path fill="#FAFBF9" opacity="1.000000" stroke="none" 
	d="
M170.985245,33.995354 
	C172.091644,38.355556 167.983505,39.027035 165.868423,40.947075 
	C159.613831,46.624905 152.226120,44.208546 145.051468,43.625889 
	C142.685303,43.433731 140.227859,44.207264 137.827621,44.627567 
	C133.514145,45.382908 129.212372,46.205017 124.427696,46.679153 
	C123.632477,45.569412 123.315262,44.779743 123.221764,43.703201 
	C127.597130,42.608341 131.718979,41.525589 135.908966,41.071087 
	C139.948502,40.632915 143.792770,40.281185 146.304810,36.104584 
	C147.063492,35.945625 147.508057,35.907280 148.019928,36.245567 
	C148.396423,36.993233 148.803894,37.734146 149.000610,37.681877 
	C156.216019,35.764702 164.329559,39.165028 170.985245,33.995354 
M158.352036,39.080631 
	C157.768768,39.424229 157.185501,39.767830 156.602234,40.111431 
	C157.103653,40.377178 157.870438,40.984215 158.054138,40.841366 
	C158.510620,40.486416 158.701187,39.789463 158.352036,39.080631 
z"/>
<path fill="#FAFDFA" opacity="1.000000" stroke="none" 
	d="
M122.998047,43.990082 
	C123.315262,44.779743 123.632477,45.569412 123.975151,46.678932 
	C120.140343,47.745758 116.280075,48.492729 112.613266,49.202267 
	C111.225075,57.009922 110.734428,57.842937 102.685844,58.749165 
	C98.319489,59.240791 93.297676,63.326199 89.355164,56.960228 
	C90.849648,55.538086 92.339989,54.599216 93.936378,53.903786 
	C95.692421,53.138802 97.596321,52.626102 96.290131,50.067017 
	C96.527130,50.037041 97.005226,50.006123 97.435364,50.001465 
	C99.812027,49.740601 101.807968,49.677177 103.696098,49.193153 
	C110.150528,47.538548 116.567062,45.736122 122.998047,43.990082 
z"/>
<path fill="#FAFCF7" opacity="1.000000" stroke="none" 
	d="
M57.000458,72.996948 
	C50.940639,72.129005 51.665585,77.019615 51.026138,80.658257 
	C45.155262,77.236221 44.308765,77.772179 42.909451,84.007019 
	C41.576069,89.948067 36.356518,87.906624 32.388901,87.949593 
	C33.189178,85.563461 34.083920,83.760857 34.990181,81.760178 
	C35.001694,81.562096 35.077644,81.172562 35.375477,81.164978 
	C36.062286,81.079239 36.451263,81.001099 37.241531,80.953308 
	C39.054619,79.907127 40.466419,78.830589 42.045845,77.457352 
	C46.518074,74.448875 50.822678,71.737083 55.344261,69.008217 
	C55.561237,68.991142 55.996525,68.988548 56.135651,69.310265 
	C56.516666,70.753639 56.758564,71.875290 57.000458,72.996948 
z"/>
<path fill="#FDF3E1" opacity="1.000000" stroke="none" 
	d="
M171.092255,33.776466 
	C164.329559,39.165028 156.216019,35.764702 149.000610,37.681877 
	C148.803894,37.734146 148.396423,36.993233 148.335648,36.011955 
	C153.796646,34.656948 158.989334,33.671391 164.227692,33.238338 
	C169.015976,32.842495 170.943375,30.249865 171.040146,25.860285 
	C171.119934,22.241308 170.992142,18.617756 171.296844,14.989693 
	C172.091354,14.988940 172.545364,14.994725 172.999390,15.000509 
	C173.003159,19.024357 173.006912,23.048204 172.863953,27.871735 
	C172.468735,30.109251 172.220245,31.547083 171.971771,32.984917 
	C171.652420,33.092365 171.394928,33.283253 171.092255,33.776466 
z"/>
<path fill="#FAFCF8" opacity="1.000000" stroke="none" 
	d="
M17.008751,97.024834 
	C17.215366,96.754868 17.421986,96.484901 18.249428,96.130020 
	C22.240595,94.028145 25.610937,92.011169 28.981281,89.994194 
	C26.783663,92.977173 24.883654,96.253304 22.310083,98.865952 
	C19.358780,101.862061 15.835569,104.302063 12.511159,106.920624 
	C10.587030,108.436218 9.161834,108.426048 9.091105,105.075897 
	C10.814166,102.876953 12.508748,101.062767 14.763860,99.019173 
	C15.535348,98.500679 15.746307,98.211594 15.957265,97.922501 
	C15.957264,97.922501 15.991553,97.992645 16.200068,97.902374 
	C16.608637,97.549683 16.808695,97.287262 17.008751,97.024834 
z"/>
<path fill="#DA7037" opacity="1.000000" stroke="none" 
	d="
M78.590515,56.727654 
	C78.590515,56.727654 78.251305,56.751011 77.757393,56.842560 
	C75.900368,57.340317 74.537254,57.746525 73.136452,57.840778 
	C73.730858,55.685211 74.362946,53.841599 75.352631,52.154896 
	C81.441437,53.660404 86.051750,51.819309 89.395348,46.996315 
	C93.529572,45.661747 97.270203,44.334801 101.350250,43.007896 
	C102.142632,43.024235 102.595604,43.040531 102.985306,43.397774 
	C100.611443,45.476749 98.300842,47.214779 95.788162,49.018219 
	C95.586075,49.083626 95.161324,49.084160 94.800179,49.047791 
	C93.664612,49.409657 92.890182,49.807892 92.069138,50.399460 
	C92.022514,50.592796 91.971413,50.987251 91.717331,51.019684 
	C91.317749,51.141502 91.172256,51.230896 90.699409,51.281075 
	C89.216446,51.814964 88.060829,52.388073 86.655983,52.995193 
	C86.264320,53.117714 86.121880,53.206215 85.746651,53.285782 
	C85.186798,53.377171 84.977577,53.592209 84.937790,53.930458 
	C84.989380,53.938961 84.909393,53.871605 84.569687,53.871460 
	C83.088165,54.498440 81.946342,55.125565 80.804520,55.752686 
	C80.804520,55.752686 80.992622,55.937023 80.590988,55.841446 
	C79.656403,56.073132 79.123459,56.400391 78.590515,56.727654 
z"/>
<path fill="#FAFCF8" opacity="1.000000" stroke="none" 
	d="
M8.380487,39.008995 
	C8.815364,45.356186 8.871659,51.719120 8.844393,58.544418 
	C7.720297,58.394867 5.792473,57.803135 5.778020,57.167873 
	C5.649342,51.511940 5.816650,45.846535 6.055136,40.190605 
	C6.072645,39.775360 7.324118,39.412144 8.380487,39.008995 
z"/>
<path fill="#FAE5D1" opacity="1.000000" stroke="none" 
	d="
M73.174141,58.152733 
	C74.537254,57.746525 75.900368,57.340317 77.621559,56.944790 
	C76.241638,58.782028 74.503639,60.608585 72.662521,62.973419 
	C71.705902,63.671452 70.852394,63.831203 69.998886,63.990955 
	C69.559135,63.980473 69.119385,63.969990 68.169128,63.736958 
	C67.087212,64.000572 66.515808,64.486732 65.944397,64.972900 
	C65.465195,65.241234 64.985985,65.509575 63.870590,65.891144 
	C60.821774,66.999100 58.409149,67.993828 55.996525,68.988548 
	C55.996525,68.988548 55.561237,68.991142 55.416489,68.671082 
	C59.934391,65.666748 64.597046,62.982483 69.557068,60.240028 
	C70.308823,59.819241 70.763214,59.456642 71.417694,59.062752 
	C71.617775,59.031464 71.990166,58.872124 72.249084,58.883842 
	C72.724091,58.641426 72.940178,58.387295 73.158463,58.120056 
	C73.160667,58.106956 73.174141,58.152737 73.174141,58.152733 
z"/>
<path fill="#FAEADD" opacity="1.000000" stroke="none" 
	d="
M29.123915,89.704285 
	C25.610937,92.011169 22.240595,94.028145 18.494940,96.047501 
	C23.085199,91.674530 28.050770,87.299171 33.094421,82.584473 
	C33.172504,82.245132 33.173676,82.205048 33.477871,82.190018 
	C34.180931,82.102737 34.579796,82.030495 34.978661,81.958252 
	C34.083920,83.760857 33.189178,85.563461 32.143166,87.666092 
	C31.083450,88.448883 30.174999,88.931633 29.123915,89.704285 
z"/>
<path fill="#F8FBF8" opacity="1.000000" stroke="none" 
	d="
M56.135651,69.310265 
	C58.409149,67.993828 60.821774,66.999100 63.618114,66.000687 
	C64.263573,68.848900 64.525307,71.700783 64.823494,74.949821 
	C62.061394,74.184166 59.926048,73.592239 57.395584,72.998634 
	C56.758564,71.875290 56.516666,70.753639 56.135651,69.310265 
z"/>
<path fill="#F2F5E2" opacity="1.000000" stroke="none" 
	d="
M85.979446,53.294720 
	C86.121880,53.206215 86.264320,53.117714 87.023720,53.020084 
	C88.769379,52.447403 89.898071,51.883850 91.026756,51.320290 
	C91.172256,51.230896 91.317749,51.141502 92.062737,51.035461 
	C93.432060,50.650318 94.201889,50.281830 94.959595,49.939400 
	C94.947464,49.965454 94.913231,49.916561 95.198013,49.962891 
	C95.672905,50.038479 95.863014,50.067738 96.053123,50.096996 
	C97.596321,52.626102 95.692421,53.138802 93.936378,53.903786 
	C92.339989,54.599216 90.849648,55.538086 89.152763,56.684570 
	C88.551270,56.997898 88.109566,56.996296 87.166771,56.750816 
	C86.108459,56.345524 85.551247,56.184116 84.994034,56.022709 
	C84.994034,56.022709 84.993568,55.988182 84.988266,55.624538 
	C84.958435,54.797798 84.933914,54.334702 84.909393,53.871605 
	C84.909393,53.871605 84.989380,53.938961 85.158821,53.903305 
	C85.622269,53.764091 85.839333,53.573116 85.979446,53.294720 
z"/>
<path fill="#F9FCFA" opacity="1.000000" stroke="none" 
	d="
M172.366531,32.989254 
	C172.220245,31.547083 172.468735,30.109251 172.870422,28.334747 
	C174.110718,27.780281 175.197800,27.562485 176.671860,27.267162 
	C176.433945,30.158640 176.920654,33.071766 172.366531,32.989254 
z"/>
<path fill="#FAFCF8" opacity="1.000000" stroke="none" 
	d="
M173.367294,14.960262 
	C172.545364,14.994725 172.091354,14.988940 171.179703,14.780267 
	C170.583221,14.269222 170.566803,13.954671 170.773407,13.201351 
	C170.912933,12.181452 170.951889,11.593926 170.990845,11.006401 
	C170.990845,11.006401 170.998337,11.001217 171.001312,10.998390 
	C172.872330,10.995563 174.740402,10.995563 176.608459,10.995563 
	C176.777130,11.505821 176.945786,12.016079 177.114456,12.526338 
	C175.988037,13.324230 174.861618,14.122123 173.367294,14.960262 
z"/>
<path fill="#FDF3E1" opacity="1.000000" stroke="none" 
	d="
M8.368723,89.061798 
	C8.827572,91.650726 8.879279,94.405228 8.853634,97.587143 
	C5.547468,95.359680 6.816844,92.287743 8.368723,89.061798 
z"/>
<path fill="#FAFBF9" opacity="1.000000" stroke="none" 
	d="
M155.985779,47.314362 
	C158.367371,47.140110 161.129074,46.126801 160.828445,50.811935 
	C158.801453,49.504166 157.244278,48.499504 155.985779,47.314362 
z"/>
<path fill="#373738" opacity="1.000000" stroke="none" 
	d="
M170.965027,144.592041 
	C168.136276,143.749191 168.293823,142.076202 170.540070,140.074432 
	C170.938980,141.389999 170.990326,142.784622 170.965027,144.592041 
z"/>
<path fill="#F8FBF8" opacity="1.000000" stroke="none" 
	d="
M70.047989,64.313911 
	C70.852394,63.831203 71.705902,63.671452 72.763947,63.254372 
	C73.466949,63.437527 73.965408,63.878010 74.463867,64.318481 
	C73.008270,64.424614 71.552681,64.530739 70.047989,64.313911 
z"/>
<path fill="#FAFBF9" opacity="1.000000" stroke="none" 
	d="
M151.066589,55.041206 
	C150.155396,55.641415 148.947021,56.123795 147.411316,56.556179 
	C148.312469,55.978584 149.540924,55.450981 151.066589,55.041206 
z"/>
<path fill="#FAE5D1" opacity="1.000000" stroke="none" 
	d="
M84.569687,53.871460 
	C84.933914,54.334702 84.958435,54.797798 84.987122,55.607311 
	C83.872330,55.942905 82.753372,55.932079 81.219467,55.836971 
	C81.946342,55.125565 83.088165,54.498440 84.569687,53.871460 
z"/>
<path fill="#FAFDFA" opacity="1.000000" stroke="none" 
	d="
M85.028137,56.312622 
	C85.551247,56.184116 86.108459,56.345524 86.835426,56.750046 
	C86.357529,56.862949 85.709885,56.732742 85.028137,56.312622 
z"/>
<path fill="#F8FBF8" opacity="1.000000" stroke="none" 
	d="
M66.254669,64.961220 
	C66.515808,64.486732 67.087212,64.000572 67.839249,63.732834 
	C67.534897,64.284019 67.049919,64.616783 66.254669,64.961220 
z"/>
<path fill="#FAFBF9" opacity="1.000000" stroke="none" 
	d="
M144.943115,56.582993 
	C144.608414,57.094013 144.217178,57.297253 143.489807,57.491333 
	C143.401962,56.818459 143.650269,56.154743 143.898560,55.491028 
	C144.227905,55.752426 144.557251,56.013821 144.943115,56.582993 
z"/>
<path fill="#FAFBF9" opacity="1.000000" stroke="none" 
	d="
M135.747162,57.357983 
	C135.992752,57.372723 136.126602,57.504700 136.260452,57.636677 
	C136.052109,57.582859 135.843781,57.529041 135.747162,57.357983 
z"/>
<path fill="#FAE5D1" opacity="1.000000" stroke="none" 
	d="
M78.940613,56.800278 
	C79.123459,56.400391 79.656403,56.073132 80.510468,55.737236 
	C80.317970,56.110035 79.804344,56.491474 78.940613,56.800278 
z"/>
<path fill="#FAFBF9" opacity="1.000000" stroke="none" 
	d="
M149.727570,50.599495 
	C149.852676,50.441795 150.068329,50.419231 150.283997,50.396667 
	C150.128708,50.509319 149.973434,50.621979 149.727570,50.599495 
z"/>
<path fill="#101010" opacity="1.000000" stroke="none" 
	d="
M56.760220,101.375809 
	C56.902916,101.669609 56.802696,101.803642 56.527683,101.936745 
	C56.405884,101.975449 56.238400,101.558372 56.238400,101.558372 
	C56.238400,101.558372 56.570301,101.255684 56.760220,101.375809 
z"/>
<path fill="#454647" opacity="1.000000" stroke="none" 
	d="
M138.624176,58.983097 
	C138.750763,59.057507 138.776062,59.029572 138.790863,59.051315 
	C138.805649,59.073059 138.654892,58.701591 138.654892,58.701591 
	C138.654892,58.701591 138.497604,58.908688 138.624176,58.983097 
z"/>
<path fill="#D38749" opacity="1.000000" stroke="none" 
	d="
M170.672836,13.633725 
	C170.566803,13.954671 170.583221,14.269222 170.839218,14.786804 
	C170.992142,18.617756 171.119934,22.241308 171.040146,25.860285 
	C170.943375,30.249865 169.015976,32.842495 164.227692,33.238338 
	C158.989334,33.671391 153.796646,34.656948 148.268341,35.635323 
	C147.508057,35.907280 147.063492,35.945625 145.896759,36.052048 
	C129.121643,40.446293 113.068718,44.772457 96.757439,49.076035 
	C96.329468,49.019905 96.159851,48.986359 95.990242,48.952812 
	C98.300842,47.214779 100.611443,45.476749 103.330872,43.382515 
	C104.830368,42.687828 105.921021,42.349346 107.437775,42.014317 
	C116.278687,40.943859 124.642990,39.695190 132.476929,35.030586 
	C136.954163,34.688679 140.976105,34.352150 145.325348,33.857872 
	C146.486496,33.181320 147.570755,32.026154 148.116028,32.240715 
	C154.612030,34.796936 160.034409,31.466707 165.421463,28.932167 
	C167.201569,28.094650 169.353180,25.338791 169.198929,23.655809 
	C168.867294,20.036968 167.147949,16.545301 165.805588,12.653044 
	C163.773529,11.863118 161.936050,11.057433 160.090973,11.039649 
	C148.394852,10.926916 136.697052,10.988428 124.531197,10.987995 
	C116.043839,10.983442 108.025101,10.983367 99.541458,10.979155 
	C92.057327,10.687259 85.038094,10.399499 77.554428,10.078693 
	C73.073067,10.054051 69.056122,10.062457 65.023849,9.847906 
	C65.008514,9.624949 64.985794,9.178562 65.423210,9.094532 
	C68.225830,8.924710 70.591026,8.838919 72.956230,8.753128 
	C77.342911,8.789727 81.729591,8.826326 87.012863,8.883672 
	C90.258530,8.847209 92.607605,8.789999 94.956673,8.732790 
	C101.672195,8.775504 108.387711,8.818219 115.930084,8.883271 
	C117.493011,8.845917 118.229080,8.786225 118.965149,8.726536 
	C121.669060,8.773133 124.372971,8.819731 127.985031,8.889056 
	C138.177399,8.934578 147.469467,9.194879 156.742874,8.889441 
	C162.145920,8.711480 166.917038,9.429399 170.672836,13.633725 
z"/>
<path fill="#FDF3E1" opacity="1.000000" stroke="none" 
	d="
M170.773407,13.201351 
	C166.917038,9.429399 162.145920,8.711480 156.742874,8.889441 
	C147.469467,9.194879 138.177399,8.934578 128.429672,8.819342 
	C129.327072,8.154626 130.681580,7.104469 132.049911,7.086124 
	C142.446548,6.946737 152.854401,6.784043 163.238052,7.176480 
	C165.654083,7.267791 167.990631,9.462097 170.677307,10.847586 
	C170.951889,11.593926 170.912933,12.181452 170.773407,13.201351 
z"/>
<path fill="#FDF3E1" opacity="1.000000" stroke="none" 
	d="
M16.933262,8.494869 
	C14.374961,11.341430 11.736022,13.846313 8.961582,16.684502 
	C5.669282,14.372726 8.475912,11.988850 9.675732,10.213919 
	C11.184436,7.982048 13.540453,5.553156 16.933262,8.494869 
z"/>
<path fill="#FDF3E1" opacity="1.000000" stroke="none" 
	d="
M72.628830,8.510147 
	C70.591026,8.838919 68.225830,8.924710 64.981689,9.037881 
	C61.735992,9.117410 59.369228,9.169559 57.002468,9.221708 
	C54.632225,9.141500 52.261986,9.061292 49.455093,8.893738 
	C56.779442,8.626652 64.540436,8.446909 72.628830,8.510147 
z"/>
<path fill="#FDF3E1" opacity="1.000000" stroke="none" 
	d="
M94.660263,8.504089 
	C92.607605,8.789999 90.258530,8.847209 87.476578,8.820076 
	C89.483742,8.582284 91.923798,8.428836 94.660263,8.504089 
z"/>
<path fill="#FDF3E1" opacity="1.000000" stroke="none" 
	d="
M30.712009,8.572409 
	C29.273167,8.863925 27.568134,8.920188 25.443966,8.891658 
	C26.831825,8.650294 28.638823,8.493725 30.712009,8.572409 
z"/>
<path fill="#FDF3E1" opacity="1.000000" stroke="none" 
	d="
M118.766541,8.527214 
	C118.229080,8.786225 117.493011,8.845917 116.396019,8.815325 
	C116.879372,8.592659 117.723648,8.460277 118.766541,8.527214 
z"/>
<path fill="#232323" opacity="1.000000" stroke="none" 
	d="
M163.999252,165.999054 
	C164.391556,165.565094 164.784622,165.132050 165.177673,164.699020 
	C165.322906,164.878662 165.468124,165.058304 165.613342,165.237946 
	C165.256134,165.476013 164.898911,165.714096 164.272064,165.977020 
	C164.002441,166.001892 164.000000,166.000000 163.999252,165.999054 
z"/>
<path fill="#D2582E" opacity="1.000000" stroke="none" 
	d="
M12.969228,16.992403 
	C13.068036,16.672731 13.246625,16.406601 13.896757,16.006960 
	C14.359790,15.715268 14.512423,15.545755 14.489117,15.516527 
	C14.338797,15.328005 14.150034,15.170136 13.973885,15.002210 
	C15.072608,11.376651 17.624952,9.937072 21.285295,10.021595 
	C24.545610,10.096879 27.808559,10.057923 31.535316,10.507514 
	C33.062847,16.729158 27.591028,14.081038 25.403711,15.620312 
	C29.455297,21.236876 32.823944,26.325499 33.444031,33.594906 
	C33.930153,39.293831 33.547688,46.804878 40.665131,50.304935 
	C41.270531,50.602646 41.697315,51.620899 41.871716,52.381329 
	C43.293491,58.580597 44.635418,64.798180 45.731033,71.205284 
	C41.973358,74.260910 38.486286,77.121437 34.830803,79.657234 
	C33.618435,77.237000 33.112606,74.216156 31.421827,73.232880 
	C27.546417,70.979118 27.492752,67.604736 26.928484,64.002243 
	C26.386442,60.541668 26.113218,56.545082 24.187504,53.901917 
	C20.604256,48.983669 19.465433,43.860920 20.020782,38.109184 
	C20.387936,34.306610 18.146162,32.824032 14.999960,31.533133 
	C14.999303,27.630867 15.180999,24.179903 14.905178,20.765900 
	C14.800030,19.464426 13.645508,18.247734 12.969228,16.992403 
z"/>
<path fill="#D55C2C" opacity="1.000000" stroke="none" 
	d="
M46.001633,71.010193 
	C44.635418,64.798180 43.293491,58.580597 41.871716,52.381329 
	C41.697315,51.620899 41.270531,50.602646 40.665131,50.304935 
	C33.547688,46.804878 33.930153,39.293831 33.444031,33.594906 
	C32.823944,26.325499 29.455297,21.236876 25.403711,15.620312 
	C27.591028,14.081038 33.062847,16.729158 32.000877,10.536860 
	C34.033989,10.106742 36.066509,10.085407 38.544235,10.490171 
	C38.994709,12.276848 38.999985,13.637426 38.769516,15.196959 
	C39.373600,16.151682 40.381119,16.789215 41.015942,17.689533 
	C42.105568,19.234858 44.141384,21.404034 43.712078,22.504835 
	C41.898266,27.155680 44.625751,30.458220 46.055481,34.280449 
	C48.540062,40.922707 50.970463,47.621078 52.774616,54.466953 
	C53.683414,57.915409 51.547085,62.062679 54.873810,65.347107 
	C51.812687,67.434555 48.907162,69.222374 46.001633,71.010193 
z"/>
<path fill="#CF532D" opacity="1.000000" stroke="none" 
	d="
M15.000000,31.999161 
	C18.146162,32.824032 20.387936,34.306610 20.020782,38.109184 
	C19.465433,43.860920 20.604256,48.983669 24.187504,53.901917 
	C26.113218,56.545082 26.386442,60.541668 26.928484,64.002243 
	C27.492752,67.604736 27.546417,70.979118 31.421827,73.232880 
	C33.112606,74.216156 33.618435,77.237000 34.833961,79.668358 
	C35.005524,80.004211 35.013214,80.023506 34.677979,80.068253 
	C33.953053,80.810349 33.563362,81.507698 33.173676,82.205048 
	C33.173676,82.205048 33.172504,82.245132 33.184296,82.262886 
	C28.095558,80.882576 26.345474,85.928864 22.912159,87.733597 
	C21.238958,88.613121 20.021812,90.360260 18.024033,91.611778 
	C17.752798,89.036392 18.055758,86.563889 18.358719,84.091385 
	C16.602383,81.166542 15.167412,77.939888 15.109305,74.688644 
	C14.855057,60.462708 14.999942,46.229641 15.000000,31.999161 
z"/>
<path fill="#C9552F" opacity="1.000000" stroke="none" 
	d="
M14.999960,31.533133 
	C14.999942,46.229641 14.855057,60.462708 15.109305,74.688644 
	C15.167412,77.939888 16.602383,81.166542 18.358719,84.091385 
	C18.055758,86.563889 17.752798,89.036392 17.723423,91.756760 
	C16.147436,93.754333 14.297864,95.504051 11.452287,98.196007 
	C11.205210,95.077942 11.016521,93.798393 11.015355,92.518677 
	C10.993834,68.909492 10.972933,45.300213 11.042014,21.691217 
	C11.046415,20.187212 11.785836,18.685356 12.576274,17.087452 
	C13.645508,18.247734 14.800030,19.464426 14.905178,20.765900 
	C15.180999,24.179903 14.999303,27.630867 14.999960,31.533133 
z"/>
<path fill="#D46830" opacity="1.000000" stroke="none" 
	d="
M39.005260,14.998004 
	C38.999985,13.637426 38.994709,12.276848 38.979027,10.512786 
	C44.663818,10.076614 50.359016,10.043928 56.803715,10.294831 
	C60.033344,10.717051 62.513466,10.855680 64.995834,11.394856 
	C64.997589,12.862878 64.997116,13.930352 64.536209,14.997684 
	C60.383926,14.997678 56.692062,14.997812 52.535545,14.997684 
	C47.715683,14.997615 43.360470,14.997809 39.005260,14.998004 
z"/>
<path fill="#C5633B" opacity="1.000000" stroke="none" 
	d="
M64.993591,10.994308 
	C62.513466,10.855680 60.033344,10.717051 57.270950,10.296458 
	C56.988678,10.014495 56.996857,9.618093 56.999664,9.419901 
	C59.369228,9.169559 61.735992,9.117410 64.544273,9.121912 
	C64.985794,9.178562 65.008514,9.624949 65.009659,10.078243 
	C65.010796,10.531536 64.993591,10.994308 64.993591,10.994308 
z"/>
<path fill="#C9552F" opacity="1.000000" stroke="none" 
	d="
M13.963995,15.239462 
	C14.150034,15.170136 14.338797,15.328005 14.489117,15.516527 
	C14.512423,15.545755 14.359790,15.715268 14.107285,15.885353 
	C13.926049,15.950799 13.954105,15.476713 13.963995,15.239462 
z"/>
<path fill="#FAEADD" opacity="1.000000" stroke="none" 
	d="
M15.697437,97.994949 
	C15.746307,98.211594 15.535348,98.500679 15.053579,98.847351 
	C15.001050,98.625755 15.219330,98.346581 15.697437,97.994949 
z"/>
<path fill="#FAEADD" opacity="1.000000" stroke="none" 
	d="
M16.752045,97.077431 
	C16.808695,97.287262 16.608637,97.549683 16.165936,97.883430 
	C16.113972,97.679840 16.304653,97.404938 16.752045,97.077431 
z"/>
<path fill="#FDF3E1" opacity="1.000000" stroke="none" 
	d="
M97.015800,49.098618 
	C113.068718,44.772457 129.121643,40.446293 145.582626,36.172665 
	C143.792770,40.281185 139.948502,40.632915 135.908966,41.071087 
	C131.718979,41.525589 127.597130,42.608341 123.221764,43.703205 
	C116.567062,45.736122 110.150528,47.538548 103.696098,49.193153 
	C101.807968,49.677177 99.812027,49.740601 97.437225,49.774517 
	C97.008965,49.552231 97.015800,49.098614 97.015800,49.098618 
z"/>
<path fill="#FDF3E1" opacity="1.000000" stroke="none" 
	d="
M158.675293,39.155247 
	C158.701187,39.789463 158.510620,40.486416 158.054138,40.841366 
	C157.870438,40.984215 157.103653,40.377178 156.602234,40.111427 
	C157.185501,39.767830 157.768768,39.424229 158.675293,39.155247 
z"/>
<path fill="#FAE5D1" opacity="1.000000" stroke="none" 
	d="
M96.757439,49.076035 
	C97.015800,49.098614 97.008965,49.552231 97.007095,49.779175 
	C97.005226,50.006123 96.527130,50.037041 96.290131,50.067017 
	C95.863014,50.067738 95.672905,50.038479 95.250313,49.751980 
	C95.017838,49.494740 95.161324,49.084160 95.161324,49.084160 
	C95.161324,49.084160 95.586075,49.083626 95.788162,49.018219 
	C96.159851,48.986359 96.329468,49.019905 96.757439,49.076035 
z"/>
<path fill="#C36A4E" opacity="1.000000" stroke="none" 
	d="
M45.731033,71.205292 
	C48.907162,69.222374 51.812687,67.434555 55.166161,65.315292 
	C56.079784,64.668808 56.545460,64.353767 57.308510,64.009842 
	C58.072662,63.656616 58.539436,63.332287 59.003105,63.003979 
	C59.000000,63.000000 59.005959,63.006710 59.228680,62.900261 
	C59.730461,62.592739 59.914509,62.326084 60.115936,61.782059 
	C60.428055,61.308067 60.682961,61.121052 61.219730,60.905113 
	C61.729370,60.603001 61.926140,60.340416 62.407410,60.016907 
	C63.519466,60.014946 64.260841,60.009327 65.336624,60.007198 
	C66.116753,59.996143 66.562462,59.981594 67.260330,59.958012 
	C67.680321,59.937687 67.848160,59.926395 68.235199,59.923775 
	C68.454399,59.932442 68.891815,59.890491 68.985062,59.991272 
	C69.078316,60.092049 69.259697,60.298214 69.259697,60.298214 
	C64.597046,62.982483 59.934391,65.666748 55.199509,68.688156 
	C50.822678,71.737083 46.518074,74.448875 41.703270,77.502380 
	C39.742126,78.870377 38.291183,79.896667 36.840240,80.922951 
	C36.451263,81.001099 36.062286,81.079239 35.351768,80.878098 
	C35.024555,80.407043 35.018887,80.215271 35.013214,80.023506 
	C35.013214,80.023506 35.005524,80.004211 35.002369,79.993088 
	C38.486286,77.121437 41.973358,74.260910 45.731033,71.205292 
z"/>
<path fill="#FAEADD" opacity="1.000000" stroke="none" 
	d="
M37.241531,80.953308 
	C38.291183,79.896667 39.742126,78.870377 41.535645,77.799072 
	C40.466419,78.830589 39.054619,79.907127 37.241531,80.953308 
z"/>
<path fill="#B75C43" opacity="1.000000" stroke="none" 
	d="
M34.677979,80.068253 
	C35.018887,80.215271 35.024555,80.407043 35.053936,80.885681 
	C35.077644,81.172562 35.001694,81.562096 34.990177,81.760178 
	C34.579796,82.030495 34.180931,82.102737 33.477867,82.190018 
	C33.563362,81.507698 33.953053,80.810349 34.677979,80.068253 
z"/>
<path fill="#DA622A" opacity="1.000000" stroke="none" 
	d="
M57.011135,64.038734 
	C56.545460,64.353767 56.079784,64.668808 55.321762,65.015656 
	C51.547085,62.062679 53.683414,57.915409 52.774616,54.466953 
	C50.970463,47.621078 48.540062,40.922707 46.055481,34.280449 
	C44.625751,30.458220 41.898266,27.155680 43.712078,22.504835 
	C44.141384,21.404034 42.105568,19.234858 41.015942,17.689533 
	C40.381119,16.789215 39.373600,16.151682 38.769516,15.196959 
	C43.360470,14.997809 47.715683,14.997615 52.592846,15.346760 
	C57.655518,18.801876 59.532063,23.482771 61.154285,28.500761 
	C62.589199,32.939346 63.175503,37.883980 67.409943,41.060120 
	C68.301453,41.728821 68.909470,43.341862 68.915161,44.523308 
	C68.935585,48.761723 70.704292,51.345135 74.995033,51.997986 
	C74.362946,53.841599 73.730858,55.685211 73.136452,57.840782 
	C73.174141,58.152737 73.160667,58.106956 72.913185,58.148018 
	C72.344627,58.321938 72.119446,58.549618 71.990166,58.872124 
	C71.990166,58.872124 71.617775,59.031464 71.039856,59.029045 
	C69.957458,59.017658 69.452980,59.008694 68.748741,59.103073 
	C68.297844,59.387390 68.120193,59.623615 68.016006,59.915104 
	C67.848160,59.926395 67.680321,59.937687 67.216721,59.664017 
	C66.510475,59.070957 66.099983,58.762863 65.689499,58.454773 
	C65.460403,58.971085 65.231308,59.487396 65.002213,60.003704 
	C64.260841,60.009327 63.519466,60.014946 62.178650,60.118706 
	C61.294540,60.414928 61.099152,60.679054 60.993042,61.009228 
	C60.682961,61.121052 60.428055,61.308067 59.895729,61.891865 
	C59.287102,62.414436 59.101376,62.678852 59.005959,63.006710 
	C59.005959,63.006710 59.000000,63.000000 58.702164,63.022354 
	C57.939926,63.376049 57.475533,63.707390 57.011135,64.038734 
z"/>
<path fill="#E46E28" opacity="1.000000" stroke="none" 
	d="
M78.018860,10.111740 
	C85.038094,10.399499 92.057327,10.687259 99.507172,11.326363 
	C99.624878,12.785367 99.311981,13.893026 98.687035,15.046494 
	C98.073753,15.416224 97.772514,15.740144 97.471283,16.064064 
	C98.313683,16.375839 99.156075,16.687613 100.217438,17.108562 
	C100.709396,17.417747 100.897736,17.678831 101.001114,18.427958 
	C103.526154,26.447401 100.799522,32.245411 94.922058,37.070404 
	C93.799736,37.991749 93.060600,39.379871 92.144669,40.552643 
	C93.619156,41.364891 95.014839,42.446808 96.592003,42.907700 
	C97.958046,43.306889 99.529930,43.001698 101.010826,43.007851 
	C97.270203,44.334801 93.529572,45.661747 89.240234,46.691452 
	C80.090958,38.476078 74.340958,29.230129 75.251717,16.713795 
	C79.484482,15.682580 83.464600,14.936788 87.444725,14.190996 
	C85.206818,12.994707 83.022728,13.323052 81.016403,12.867870 
	C79.867905,12.607309 79.008453,11.072728 78.018860,10.111740 
z"/>
<path fill="#DE6628" opacity="1.000000" stroke="none" 
	d="
M74.999077,16.999218 
	C74.340958,29.230129 80.090958,38.476078 88.846634,46.699074 
	C86.051750,51.819309 81.441437,53.660404 75.352631,52.154896 
	C70.704292,51.345135 68.935585,48.761723 68.915161,44.523308 
	C68.909470,43.341862 68.301453,41.728821 67.409943,41.060120 
	C63.175503,37.883980 62.589199,32.939346 61.154285,28.500761 
	C59.532063,23.482771 57.655518,18.801876 53.057499,15.347023 
	C56.692062,14.997812 60.383926,14.997678 64.945267,14.998568 
	C68.876190,15.666135 71.937630,16.332678 74.999077,16.999218 
z"/>
<path fill="#E67222" opacity="1.000000" stroke="none" 
	d="
M101.350250,43.007896 
	C99.529930,43.001698 97.958046,43.306889 96.592003,42.907700 
	C95.014839,42.446808 93.619156,41.364891 92.144669,40.552643 
	C93.060600,39.379871 93.799736,37.991749 94.922058,37.070404 
	C100.799522,32.245411 103.526154,26.447401 101.397110,18.435566 
	C102.852730,19.013460 104.764366,19.959373 104.828056,21.016598 
	C105.153275,26.415615 107.262062,30.726311 112.431915,34.341656 
	C107.167389,35.170017 106.531876,38.279034 107.011681,42.010868 
	C105.921021,42.349346 104.830368,42.687828 103.394135,43.041565 
	C102.595604,43.040531 102.142632,43.024235 101.350250,43.007896 
z"/>
<path fill="#FAE5D1" opacity="1.000000" stroke="none" 
	d="
M90.699409,51.281075 
	C89.898071,51.883850 88.769379,52.447403 87.272949,52.986069 
	C88.060829,52.388073 89.216446,51.814964 90.699409,51.281075 
z"/>
<path fill="#D38749" opacity="1.000000" stroke="none" 
	d="
M94.800179,49.047791 
	C95.161324,49.084160 95.017838,49.494740 94.965530,49.705650 
	C94.913231,49.916561 94.947464,49.965454 94.599174,49.936924 
	C93.539177,50.007637 92.827461,50.106880 92.115753,50.206123 
	C92.890182,49.807892 93.664612,49.409657 94.800179,49.047791 
z"/>
<path fill="#FAE5D1" opacity="1.000000" stroke="none" 
	d="
M92.069138,50.399460 
	C92.827461,50.106880 93.539177,50.007637 94.611305,49.910870 
	C94.201889,50.281830 93.432060,50.650318 92.316818,51.003029 
	C91.971413,50.987251 92.022514,50.592796 92.069138,50.399460 
z"/>
<path fill="#FAE5D1" opacity="1.000000" stroke="none" 
	d="
M85.746651,53.285782 
	C85.839333,53.573116 85.622269,53.764091 85.107231,53.894802 
	C84.977577,53.592209 85.186798,53.377171 85.746651,53.285782 
z"/>
<path fill="#C36A4E" opacity="1.000000" stroke="none" 
	d="
M68.948509,58.999725 
	C69.452980,59.008694 69.957458,59.017658 70.839767,59.060333 
	C70.763214,59.456642 70.308823,59.819241 69.557068,60.240028 
	C69.259697,60.298214 69.078316,60.092049 69.014297,59.770027 
	C68.950279,59.448002 68.948509,58.999725 68.948509,58.999725 
z"/>
<path fill="#C36A4E" opacity="1.000000" stroke="none" 
	d="
M72.249084,58.883842 
	C72.119446,58.549618 72.344627,58.321938 72.910980,58.161118 
	C72.940178,58.387295 72.724091,58.641426 72.249084,58.883842 
z"/>
<path fill="#F48021" opacity="1.000000" stroke="none" 
	d="
M165.996643,13.001577 
	C167.147949,16.545301 168.867294,20.036968 169.198929,23.655809 
	C169.353180,25.338791 167.201569,28.094650 165.421463,28.932167 
	C160.034409,31.466707 154.612030,34.796936 148.116028,32.240715 
	C147.570755,32.026154 146.486496,33.181320 145.325455,33.463089 
	C142.998032,27.151312 140.997787,21.076561 139.466400,15.000959 
	C147.348953,15.000109 154.762665,15.000109 163.041550,15.000109 
	C163.219345,14.879859 164.608002,13.940718 165.996643,13.001577 
z"/>
<path fill="#EC7623" opacity="1.000000" stroke="none" 
	d="
M107.437775,42.014317 
	C106.531876,38.279034 107.167389,35.170017 112.431915,34.341656 
	C107.262062,30.726311 105.153275,26.415615 104.828056,21.016598 
	C104.764366,19.959373 102.852730,19.013460 101.397415,18.008600 
	C100.897736,17.678831 100.709396,17.417747 100.218063,16.775677 
	C100.000435,15.889774 100.001129,15.445936 100.469322,15.001619 
	C106.291107,15.000875 111.645401,15.000608 117.040131,15.369647 
	C120.506027,23.375187 122.736008,31.937038 132.021606,35.035961 
	C124.642990,39.695190 116.278687,40.943859 107.437775,42.014317 
z"/>
<path fill="#F17B20" opacity="1.000000" stroke="none" 
	d="
M132.476929,35.030586 
	C122.736008,31.937038 120.506027,23.375187 117.477661,15.369585 
	C119.916512,14.999654 121.958252,14.999089 124.466110,14.999025 
	C129.620667,15.000287 134.309113,15.001048 138.997559,15.001808 
	C140.997787,21.076561 142.998032,27.151312 144.998138,33.620842 
	C140.976105,34.352150 136.954163,34.688679 132.476929,35.030586 
z"/>
<path fill="#ED8028" opacity="1.000000" stroke="none" 
	d="
M139.466400,15.000958 
	C134.309113,15.001048 129.620667,15.000287 124.498871,14.653559 
	C124.376953,13.202553 124.688393,12.097513 124.999817,10.992474 
	C136.697052,10.988428 148.394852,10.926916 160.090973,11.039649 
	C161.936050,11.057433 163.773529,11.863118 165.805588,12.653043 
	C164.608002,13.940718 163.219345,14.879859 163.041550,15.000109 
	C154.762665,15.000109 147.348953,15.000109 139.466400,15.000958 
z"/>
<path fill="#E87828" opacity="1.000000" stroke="none" 
	d="
M124.531204,10.987996 
	C124.688393,12.097513 124.376953,13.202553 124.032761,14.653058 
	C121.958252,14.999089 119.916512,14.999654 117.437225,15.000280 
	C111.645401,15.000608 106.291107,15.000875 100.218628,15.000946 
	C99.333313,15.000730 99.166199,15.000709 98.999084,15.000686 
	C99.311981,13.893026 99.624878,12.785367 99.972069,11.330500 
	C108.025101,10.983367 116.043839,10.983442 124.531204,10.987996 
z"/>
<path fill="#E06B2D" opacity="1.000000" stroke="none" 
	d="
M75.251717,16.713795 
	C71.937630,16.332678 68.876190,15.666135 65.405685,14.998709 
	C64.997116,13.930352 64.997589,12.862878 64.995834,11.394856 
	C64.993591,10.994308 65.010796,10.531536 65.024994,10.301199 
	C69.056122,10.062457 73.073067,10.054051 77.554428,10.078692 
	C79.008453,11.072728 79.867905,12.607309 81.016403,12.867870 
	C83.022728,13.323052 85.206818,12.994707 87.444725,14.190996 
	C83.464600,14.936788 79.484482,15.682580 75.251717,16.713795 
z"/>
<path fill="#D55C2C" opacity="1.000000" stroke="none" 
	d="
M65.336624,60.007198 
	C65.231308,59.487396 65.460403,58.971085 65.689499,58.454773 
	C66.099983,58.762863 66.510475,59.070957 66.964569,59.673050 
	C66.562462,59.981594 66.116753,59.996143 65.336624,60.007198 
z"/>
<path fill="#D55C2C" opacity="1.000000" stroke="none" 
	d="
M57.308510,64.009842 
	C57.475533,63.707390 57.939926,63.376049 58.705265,63.026329 
	C58.539436,63.332287 58.072662,63.656616 57.308510,64.009842 
z"/>
<path fill="#D55C2C" opacity="1.000000" stroke="none" 
	d="
M68.748741,59.103073 
	C68.948509,58.999725 68.950279,59.448002 68.921051,59.669247 
	C68.891815,59.890491 68.454399,59.932442 68.235199,59.923775 
	C68.120193,59.623615 68.297844,59.387390 68.748741,59.103073 
z"/>
<path fill="#D55C2C" opacity="1.000000" stroke="none" 
	d="
M61.219730,60.905113 
	C61.099152,60.679054 61.294540,60.414928 61.807968,60.115044 
	C61.926140,60.340416 61.729370,60.603001 61.219730,60.905113 
z"/>
<path fill="#D55C2C" opacity="1.000000" stroke="none" 
	d="
M59.228680,62.900261 
	C59.101376,62.678852 59.287102,62.414436 59.783340,62.103649 
	C59.914509,62.326084 59.730461,62.592739 59.228680,62.900261 
z"/>
<path fill="#E67222" opacity="1.000000" stroke="none" 
	d="
M98.687042,15.046494 
	C99.166199,15.000709 99.333313,15.000730 99.751129,15.001425 
	C100.001129,15.445936 100.000435,15.889774 99.999100,16.666500 
	C99.156075,16.687613 98.313683,16.375839 97.471283,16.064064 
	C97.772514,15.740144 98.073753,15.416224 98.687042,15.046494 
z"/>
</svg>