<svg version="1.1" id="Layer_1" xmlns="http://www.w3.org/2000/svg" xmlns:xlink="http://www.w3.org/1999/xlink" x="0px" y="0px"
	 width="100%" viewBox="0 0 768 768" enable-background="new 0 0 768 768" xml:space="preserve">
<path fill="#6D429C" opacity="1.000000" stroke="none" 
	d="
M1.000000,412.000000 
	C1.000000,394.645782 1.000000,377.291534 1.272371,359.156586 
	C1.689255,357.732086 1.878177,357.094696 1.971828,356.443634 
	C4.740445,337.195343 6.249165,317.664795 10.498108,298.749695 
	C22.547956,245.107101 45.532307,196.331146 78.898125,152.524887 
	C79.595871,151.608795 79.583160,150.151566 79.929527,148.955505 
	C79.957169,148.964203 79.936890,148.909897 80.205048,149.245972 
	C81.617165,147.702240 82.761124,145.822418 83.935135,143.955795 
	C83.965187,143.968994 83.936745,143.909836 84.200775,144.241776 
	C85.298622,143.352402 86.132439,142.131088 86.972641,140.946411 
	C86.979034,140.983063 86.904678,140.980835 87.251251,141.029709 
	C87.732735,140.663452 87.867638,140.248337 88.093307,139.513260 
	C91.281448,136.100464 94.405792,133.034073 97.470734,129.909409 
	C104.301636,122.945442 111.102852,115.952362 118.223534,109.111893 
	C119.978134,110.623215 121.458763,111.960388 122.867805,113.369156 
	C181.100861,171.591110 239.323486,229.823471 297.577271,288.024658 
	C299.066986,289.513000 300.889557,290.668213 302.656677,292.438782 
	C302.756439,332.318329 302.756439,371.737854 302.756439,410.528931 
	C303.025330,410.903076 302.651154,410.432709 302.330078,409.928589 
	C264.134735,349.964325 225.949585,289.993591 187.714996,230.054367 
	C186.787338,228.600128 185.341446,226.429962 184.087265,226.395157 
	C173.502197,226.101349 162.905457,226.227554 152.342255,226.227554 
	C152.342255,299.486298 152.342255,372.063477 152.342255,444.677979 
	C160.882736,444.677979 169.114059,444.677979 177.288940,444.677979 
	C177.288940,382.194275 177.288940,320.036133 177.288940,257.762146 
	C179.730301,262.156036 181.910751,266.594116 184.550140,270.740021 
	C194.922516,287.032715 205.440948,303.232452 215.902374,319.468475 
	C242.145584,360.197784 268.379028,400.933380 294.667114,441.633698 
	C295.503693,442.928925 296.871674,444.793854 298.032135,444.823578 
	C307.962646,445.077850 317.902405,444.969391 328.150757,444.969391 
	C328.150757,442.554443 328.150757,440.745178 328.150757,438.935883 
	C328.150757,401.773651 328.145447,364.611420 328.162659,327.449188 
	C328.163818,324.958649 328.335327,322.468201 328.745300,320.029846 
	C330.432251,321.275665 331.876373,322.394318 333.159393,323.674469 
	C348.825745,339.305756 364.451691,354.977539 380.146820,370.579773 
	C381.503571,371.928467 383.276947,372.858063 384.924438,374.447876 
	C384.992065,398.171753 384.992065,421.430054 384.992065,445.143188 
	C409.090698,445.143188 432.554169,445.143188 456.051361,445.478760 
	C457.465637,447.449249 458.735352,449.194977 460.242706,450.703186 
	C525.732971,516.229858 591.246094,581.733643 656.741150,647.255554 
	C658.259888,648.774963 659.603027,650.469788 660.876465,652.375061 
	C650.544312,662.444214 640.363831,672.221191 629.825806,681.973755 
	C629.319824,682.331421 629.171448,682.713379 629.019958,683.058228 
	C629.016846,683.021179 629.089050,683.039001 628.709229,682.899902 
	C627.583008,683.861572 626.836609,684.962341 626.060974,686.049561 
	C626.031738,686.035950 626.056763,686.095398 625.812378,685.733643 
	C624.075317,686.935669 622.582642,688.499512 621.062683,690.052979 
	C621.035461,690.042603 621.053162,690.098145 620.831604,689.733032 
	C613.661865,694.159729 606.767883,699.032410 599.756897,703.730408 
	C546.855286,739.179565 488.873535,760.649841 425.409607,767.037109 
	C420.589355,767.522278 415.802429,768.337952 411.000000,769.000000 
	C393.645782,769.000000 376.291534,769.000000 358.261292,768.626465 
	C336.905853,767.004272 316.513275,763.833252 296.383972,758.981506 
	C212.922119,738.864990 143.519653,695.765137 88.811424,629.809509 
	C39.648853,570.539673 10.869170,502.276611 2.952001,425.454193 
	C2.487832,420.950256 1.659086,416.483856 1.000000,412.000000 
M525.596130,553.977417 
	C525.389587,552.494019 525.217834,551.004883 524.971130,549.528198 
	C522.621887,535.468506 513.237305,525.792603 500.453613,524.231750 
	C486.651245,522.546448 474.080963,528.759888 467.570129,541.219482 
	C460.222687,555.280029 460.365082,569.659546 467.416901,583.853699 
	C471.449066,591.969849 478.259949,596.867188 486.968781,598.802063 
	C495.776459,600.758972 504.533600,599.888062 512.965576,596.663147 
	C520.756042,593.683594 521.856262,591.239014 519.711365,582.715759 
	C508.546722,589.363342 496.983185,593.717102 484.616821,586.170349 
	C477.105194,581.586304 475.046570,573.939697 474.977112,564.910400 
	C491.998688,564.910400 508.694824,564.910400 525.662964,564.910400 
	C525.662964,561.150391 525.662964,558.013672 525.596130,553.977417 
M308.779236,585.416443 
	C305.120392,586.504700 301.522552,587.908936 297.792633,588.628967 
	C276.461975,592.746399 258.655609,582.667908 253.515045,562.771790 
	C251.765564,556.000610 251.605515,548.534119 252.170380,541.501892 
	C254.007950,518.625000 274.384338,502.879883 296.981110,506.564545 
	C302.938171,507.535919 308.729370,509.524475 314.809509,511.101074 
	C314.809509,509.149872 314.547363,507.115875 314.863586,505.176147 
	C315.540924,501.021027 313.778534,498.832062 309.803009,498.324554 
	C303.065979,497.464447 296.317078,496.096619 289.566376,496.055420 
	C268.228302,495.925140 251.168396,507.705109 242.996552,527.553284 
	C234.789047,547.487976 239.020172,573.036560 253.210876,586.769043 
	C268.271851,601.343628 286.409271,602.439941 305.365021,597.130432 
	C317.144745,593.830811 314.245880,594.962952 314.621216,584.744263 
	C314.636963,584.315979 314.348938,583.876526 314.104645,583.152649 
	C312.466827,583.845276 310.978516,584.474670 308.779236,585.416443 
M335.075867,585.356873 
	C344.201935,597.634033 356.543060,601.789246 371.196808,598.934448 
	C384.896942,596.265442 393.658844,587.514221 397.449066,574.356628 
	C399.025177,568.885193 399.161072,562.847534 399.081665,557.079285 
	C398.852081,540.407776 388.104370,526.592346 373.052124,524.307861 
	C354.011383,521.418030 338.569489,527.883789 331.752258,544.543884 
	C326.137329,558.265747 326.770966,571.852539 335.075867,585.356873 
M417.550049,592.295044 
	C417.550049,594.086853 417.550049,595.878601 417.550049,597.682495 
	C421.865601,597.682495 425.610321,597.682495 429.778046,597.682495 
	C429.778046,595.569763 429.775818,593.768005 429.778412,591.966187 
	C429.795197,580.314026 429.483398,568.649780 429.910156,557.012634 
	C430.505493,540.776489 439.122803,533.899048 455.218811,536.615234 
	C455.218811,534.410645 455.000122,532.252319 455.265869,530.155396 
	C455.766083,526.208252 454.127106,524.962891 450.278015,524.808533 
	C442.437103,524.494019 436.931702,528.047546 432.714600,534.237488 
	C431.951019,535.358337 431.184448,536.477173 429.601868,538.792969 
	C429.601868,533.682312 429.601868,530.073608 429.601868,526.250854 
	C425.476593,526.250854 421.743927,526.250854 417.550842,526.250854 
	C417.550842,548.120422 417.550842,569.732300 417.550049,592.295044 
M101.591461,443.110016 
	C106.897881,437.683105 108.498848,431.345520 105.404686,424.370056 
	C102.570023,417.979584 97.570442,414.138123 90.310387,413.904663 
	C83.037193,413.670807 77.907921,417.176880 74.655373,423.448547 
	C71.011810,430.474182 72.982140,439.149231 79.133820,444.196472 
	C85.583946,449.488586 93.595490,449.280029 101.591461,443.110016 
z"/>
<path fill="#5C2D91" opacity="1.000000" stroke="none" 
	d="
M302.556885,291.978790 
	C300.889557,290.668213 299.066986,289.513000 297.577271,288.024658 
	C239.323486,229.823471 181.100861,171.591110 122.867805,113.369156 
	C121.458763,111.960388 119.978134,110.623215 118.365601,108.807083 
	C129.937698,98.263901 141.335831,87.736382 153.479202,78.153183 
	C183.964294,54.095238 218.044098,36.350681 254.423065,23.108515 
	C282.876251,12.751379 312.235718,5.920750 342.432709,2.921022 
	C343.343079,2.830584 344.146637,1.664558 345.000000,1.000001 
	C371.354218,1.000000 397.708466,1.000000 424.481934,1.421878 
	C425.738586,2.226237 426.542358,2.820481 427.418365,2.959419 
	C440.372986,5.014025 453.430176,6.543157 466.279755,9.113240 
	C493.257721,14.509171 519.214050,23.335991 544.199402,34.760277 
	C566.214355,44.826378 587.166626,56.815472 606.962952,70.891457 
	C631.364258,88.241714 653.176941,108.308434 673.154724,130.543198 
	C687.616638,146.638947 700.346924,163.944778 711.822998,182.253860 
	C726.748169,206.065735 738.690552,231.294861 748.007751,257.762512 
	C757.734619,285.393921 764.277344,313.767059 767.089478,342.968353 
	C767.159912,343.700134 768.338318,344.325195 769.000000,345.000000 
	C769.000000,371.354218 769.000000,397.708466 768.580505,424.463501 
	C767.797058,425.368530 767.187500,425.835754 767.105347,426.382324 
	C765.373474,437.895081 764.098694,449.491852 761.939697,460.922058 
	C756.342773,490.553955 746.923584,519.000549 734.238464,546.353394 
	C723.070984,570.433716 709.940430,593.431763 693.677063,614.399292 
	C683.505920,627.512573 671.958191,639.558167 661.028076,652.082825 
	C659.603027,650.469788 658.259888,648.774963 656.741150,647.255554 
	C591.246094,581.733643 525.732971,516.229858 460.242706,450.703186 
	C458.735352,449.194977 457.465637,447.449249 456.515381,445.417969 
	C471.535889,445.021667 486.126068,445.021667 500.999268,445.021667 
	C500.999268,436.830353 500.999268,429.128479 500.999268,420.804901 
	C476.840851,420.804901 452.935303,420.804901 428.981201,420.473633 
	C423.063812,414.412659 417.195038,408.682922 411.244446,402.494232 
	C411.162628,383.128479 411.162628,364.221680 411.162628,344.948792 
	C437.782867,344.948792 463.705566,344.948792 489.752258,344.948792 
	C489.752258,337.189056 489.752258,329.807983 489.752258,321.866974 
	C463.403870,321.866974 437.368011,321.866974 411.496887,321.866974 
	C411.496887,297.426361 411.496887,273.552246 411.496887,249.152985 
	C439.781433,249.152985 467.669250,249.152985 495.556152,249.152985 
	C495.556152,241.234222 495.556152,233.852264 495.556152,226.436783 
	C458.605408,226.436783 422.032074,226.436783 384.998840,226.436783 
	C384.998840,228.653809 385.000580,230.611404 384.998627,232.569000 
	C384.951569,279.706787 384.904144,326.844543 384.856812,373.982330 
	C383.276947,372.858063 381.503571,371.928467 380.146820,370.579773 
	C364.451691,354.977539 348.825745,339.305756 333.159393,323.674469 
	C331.876373,322.394318 330.432251,321.275665 328.650330,319.571075 
	C328.237671,288.214020 328.237671,257.367859 328.237671,226.463409 
	C319.357880,226.463409 311.292419,226.463409 302.556885,226.463409 
	C302.556885,248.495758 302.556885,270.237274 302.556885,291.978790 
M642.500000,226.145370 
	C602.077759,226.145370 561.655457,226.145370 521.342407,226.145370 
	C521.342407,234.282074 521.342407,241.697601 521.342407,249.547180 
	C542.305115,249.547180 562.909363,249.547180 584.013672,249.547180 
	C584.013672,314.887848 584.013672,379.782471 584.013672,444.766663 
	C592.621216,444.766663 600.717285,444.766663 609.376709,444.766663 
	C609.376709,379.648773 609.376709,314.762787 609.376709,249.307022 
	C630.821289,249.307022 651.710388,249.307022 672.696960,249.307022 
	C672.696960,241.330688 672.696960,233.931580 672.696960,226.145447 
	C662.764343,226.145447 653.132202,226.145447 642.500000,226.145370 
z"/>
<path fill="#000000" opacity="1.000000" stroke="none" 
	d="
M769.000000,344.531372 
	C768.338318,344.325195 767.159912,343.700134 767.089478,342.968353 
	C764.277344,313.767059 757.734619,285.393921 748.007751,257.762512 
	C738.690552,231.294861 726.748169,206.065735 711.822998,182.253860 
	C700.346924,163.944778 687.616638,146.638947 673.154724,130.543198 
	C653.176941,108.308434 631.364258,88.241714 606.962952,70.891457 
	C587.166626,56.815472 566.214355,44.826378 544.199402,34.760277 
	C519.214050,23.335991 493.257721,14.509171 466.279755,9.113240 
	C453.430176,6.543157 440.372986,5.014025 427.418365,2.959419 
	C426.542358,2.820481 425.738586,2.226237 424.950623,1.421878 
	C539.593750,1.000000 654.187439,1.000000 769.000000,1.000000 
	C769.000000,115.354134 769.000000,229.708405 769.000000,344.531372 
z"/>
<path fill="#000000" opacity="1.000000" stroke="none" 
	d="
M660.876465,652.375061 
	C671.958191,639.558167 683.505920,627.512573 693.677063,614.399292 
	C709.940430,593.431763 723.070984,570.433716 734.238464,546.353394 
	C746.923584,519.000549 756.342773,490.553955 761.939697,460.922058 
	C764.098694,449.491852 765.373474,437.895081 767.105347,426.382324 
	C767.187500,425.835754 767.797058,425.368530 768.580505,424.932159 
	C769.000000,539.588379 769.000000,654.176819 769.000000,769.000000 
	C670.312561,769.000000 571.624939,769.000000 472.171661,768.657593 
	C471.746704,767.955750 472.024750,767.394043 472.437225,767.266235 
	C483.585358,763.811951 494.962524,760.970337 505.853638,756.844360 
	C520.188477,751.413635 534.697815,746.002380 548.124084,738.723450 
	C565.881531,729.096375 582.838074,717.937744 599.783997,706.892822 
	C607.320679,701.980347 613.990051,695.737244 621.053101,690.098145 
	C621.053162,690.098145 621.035461,690.042603 621.374268,689.937500 
	C623.161011,688.586731 624.608887,687.341064 626.056763,686.095398 
	C626.056763,686.095398 626.031738,686.035950 626.355835,685.948120 
	C627.482910,684.919861 628.285950,683.979431 629.089050,683.039001 
	C629.089050,683.039001 629.016846,683.021179 629.294312,682.979614 
	C629.775696,682.624756 629.979553,682.311462 630.183411,681.998169 
	C640.363831,672.221191 650.544312,662.444214 660.876465,652.375061 
z"/>
<path fill="#000000" opacity="1.000000" stroke="none" 
	d="
M344.531342,1.000001 
	C344.146637,1.664558 343.343079,2.830584 342.432709,2.921022 
	C312.235718,5.920750 282.876251,12.751379 254.423065,23.108515 
	C218.044098,36.350681 183.964294,54.095238 153.479202,78.153183 
	C141.335831,87.736382 129.937698,98.263901 118.058243,108.666336 
	C111.102852,115.952362 104.301636,122.945442 97.470734,129.909409 
	C94.405792,133.034073 91.281448,136.100464 87.826096,139.613419 
	C87.280304,140.349304 87.092491,140.665070 86.904678,140.980835 
	C86.904678,140.980835 86.979034,140.983063 86.672592,141.044495 
	C85.556351,142.040558 84.746552,142.975204 83.936752,143.909836 
	C83.936745,143.909836 83.965187,143.968994 83.624763,144.069611 
	C82.168526,145.750107 81.052711,147.330002 79.936890,148.909897 
	C79.936890,148.909897 79.957169,148.964203 79.613770,149.073288 
	C74.628365,154.848251 69.600967,160.244553 65.414612,166.229187 
	C51.317165,186.382294 38.236534,207.116745 27.704418,229.469101 
	C17.489647,251.147980 8.867748,273.312805 2.924621,296.525909 
	C2.767094,297.141174 1.662779,297.514069 0.999998,298.000000 
	C1.000000,199.067581 1.000000,100.135162 1.000000,1.000000 
	C115.354149,1.000000 229.708420,1.000000 344.531342,1.000001 
z"/>
<path fill="#000000" opacity="1.000000" stroke="none" 
	d="
M277.000000,769.000000 
	C185.072968,769.000000 93.145927,769.000000 1.000000,769.000000 
	C1.000000,677.312561 1.000000,585.624939 1.342390,493.171143 
	C2.109182,492.891998 2.794218,493.319702 2.920476,493.874573 
	C8.397095,517.941650 17.515978,540.704834 28.055204,562.900879 
	C36.978954,581.694580 47.064594,599.907166 59.878918,616.366089 
	C72.282944,632.297974 84.366356,648.632568 98.236847,663.225525 
	C111.307213,676.976562 125.779922,689.685364 140.995331,701.028931 
	C157.729187,713.504517 175.523254,724.775391 193.742477,734.988831 
	C219.430481,749.389160 246.858017,759.951660 275.526031,767.073792 
	C276.139038,767.226074 276.514008,768.336487 277.000000,769.000000 
z"/>
<path fill="#FEFEFF" opacity="1.000000" stroke="none" 
	d="
M277.468658,769.000000 
	C276.514008,768.336487 276.139038,767.226074 275.526031,767.073792 
	C246.858017,759.951660 219.430481,749.389160 193.742477,734.988831 
	C175.523254,724.775391 157.729187,713.504517 140.995331,701.028931 
	C125.779922,689.685364 111.307213,676.976562 98.236847,663.225525 
	C84.366356,648.632568 72.282944,632.297974 59.878918,616.366089 
	C47.064594,599.907166 36.978954,581.694580 28.055204,562.900879 
	C17.515978,540.704834 8.397095,517.941650 2.920476,493.874573 
	C2.794218,493.319702 2.109182,492.891998 1.342390,492.702515 
	C1.000000,466.312439 1.000000,439.624878 1.000000,412.468658 
	C1.659086,416.483856 2.487832,420.950256 2.952001,425.454193 
	C10.869170,502.276611 39.648853,570.539673 88.811424,629.809509 
	C143.519653,695.765137 212.922119,738.864990 296.383972,758.981506 
	C316.513275,763.833252 336.905853,767.004272 357.792664,768.626465 
	C331.312439,769.000000 304.624878,769.000000 277.468658,769.000000 
z"/>
<path fill="#FDFDFE" opacity="1.000000" stroke="none" 
	d="
M0.999998,298.468658 
	C1.662779,297.514069 2.767094,297.141174 2.924621,296.525909 
	C8.867748,273.312805 17.489647,251.147980 27.704418,229.469101 
	C38.236534,207.116745 51.317165,186.382294 65.414612,166.229187 
	C69.600967,160.244553 74.628365,154.848251 79.586136,149.064575 
	C79.583160,150.151566 79.595871,151.608795 78.898125,152.524887 
	C45.532307,196.331146 22.547956,245.107101 10.498108,298.749695 
	C6.249165,317.664795 4.740445,337.195343 1.971828,356.443634 
	C1.878177,357.094696 1.689255,357.732086 1.272371,358.687927 
	C1.000000,338.979095 1.000000,318.958221 0.999998,298.468658 
z"/>
<path fill="#FDFDFE" opacity="1.000000" stroke="none" 
	d="
M620.831543,689.733032 
	C613.990051,695.737244 607.320679,701.980347 599.783997,706.892822 
	C582.838074,717.937744 565.881531,729.096375 548.124084,738.723450 
	C534.697815,746.002380 520.188477,751.413635 505.853638,756.844360 
	C494.962524,760.970337 483.585358,763.811951 472.437225,767.266235 
	C472.024750,767.394043 471.746704,767.955750 471.703003,768.657593 
	C451.979095,769.000000 431.958221,769.000000 411.468658,769.000000 
	C415.802429,768.337952 420.589355,767.522278 425.409607,767.037109 
	C488.873535,760.649841 546.855286,739.179565 599.756897,703.730408 
	C606.767883,699.032410 613.661865,694.159729 620.831543,689.733032 
z"/>
<path fill="#FEFDFE" opacity="1.000000" stroke="none" 
	d="
M302.656677,292.438782 
	C302.556885,270.237274 302.556885,248.495758 302.556885,226.463409 
	C311.292419,226.463409 319.357880,226.463409 328.237671,226.463409 
	C328.237671,257.367859 328.237671,288.214020 328.332642,319.518921 
	C328.335327,322.468201 328.163818,324.958649 328.162659,327.449188 
	C328.145447,364.611420 328.150757,401.773651 328.150757,438.935883 
	C328.150757,440.745178 328.150757,442.554443 328.150757,444.969391 
	C317.902405,444.969391 307.962646,445.077850 298.032135,444.823578 
	C296.871674,444.793854 295.503693,442.928925 294.667114,441.633698 
	C268.379028,400.933380 242.145584,360.197784 215.902374,319.468475 
	C205.440948,303.232452 194.922516,287.032715 184.550140,270.740021 
	C181.910751,266.594116 179.730301,262.156036 177.288940,257.762146 
	C177.288940,320.036133 177.288940,382.194275 177.288940,444.677979 
	C169.114059,444.677979 160.882736,444.677979 152.342255,444.677979 
	C152.342255,372.063477 152.342255,299.486298 152.342255,226.227554 
	C162.905457,226.227554 173.502197,226.101349 184.087265,226.395157 
	C185.341446,226.429962 186.787338,228.600128 187.714996,230.054367 
	C225.949585,289.993591 264.134735,349.964325 302.330078,409.928589 
	C302.651154,410.432709 303.025330,410.903076 302.756439,410.528931 
	C302.756439,371.737854 302.756439,332.318329 302.656677,292.438782 
z"/>
<path fill="#FEFEFF" opacity="1.000000" stroke="none" 
	d="
M429.029755,420.804901 
	C452.935303,420.804901 476.840851,420.804901 500.999268,420.804901 
	C500.999268,429.128479 500.999268,436.830353 500.999268,445.021667 
	C486.126068,445.021667 471.535889,445.021667 456.481689,445.082428 
	C432.554169,445.143188 409.090698,445.143188 384.992065,445.143188 
	C384.992065,421.430054 384.992065,398.171753 384.924438,374.447876 
	C384.904144,326.844543 384.951569,279.706787 384.998627,232.569000 
	C385.000580,230.611404 384.998840,228.653809 384.998840,226.436783 
	C422.032074,226.436783 458.605408,226.436783 495.556152,226.436783 
	C495.556152,233.852264 495.556152,241.234222 495.556152,249.152985 
	C467.669250,249.152985 439.781433,249.152985 411.496887,249.152985 
	C411.496887,273.552246 411.496887,297.426361 411.496887,321.866974 
	C437.368011,321.866974 463.403870,321.866974 489.752258,321.866974 
	C489.752258,329.807983 489.752258,337.189056 489.752258,344.948792 
	C463.705566,344.948792 437.782867,344.948792 411.162628,344.948792 
	C411.162628,364.221680 411.162628,383.128479 411.142334,402.955688 
	C411.122009,409.464417 411.122009,415.052734 411.122009,420.804901 
	C417.469513,420.804901 423.249634,420.804901 429.029755,420.804901 
z"/>
<path fill="#EFEDF0" opacity="1.000000" stroke="none" 
	d="
M525.629517,554.427246 
	C525.662964,558.013672 525.662964,561.150391 525.662964,564.910400 
	C508.694824,564.910400 491.998688,564.910400 474.977112,564.910400 
	C475.046570,573.939697 477.105194,581.586304 484.616821,586.170349 
	C496.983185,593.717102 508.546722,589.363342 519.711182,582.714355 
	C521.856262,591.239014 520.756042,593.683594 512.965576,596.663147 
	C504.533600,599.888062 495.776459,600.758972 486.968781,598.802063 
	C478.259949,596.867188 471.449066,591.969849 467.416901,583.853699 
	C460.365082,569.659546 460.222687,555.280029 467.570129,541.219482 
	C474.080963,528.759888 486.651245,522.546448 500.453613,524.231750 
	C513.237305,525.792603 522.621887,535.468506 524.971130,549.528198 
	C525.217834,551.004883 525.389587,552.494019 525.629517,554.427246 
M476.048645,555.147339 
	C488.488190,555.147339 500.927765,555.147339 513.347534,555.147339 
	C513.568542,544.200317 508.692596,536.871338 500.229309,534.798096 
	C488.143097,531.837219 476.225311,541.349365 476.048645,555.147339 
z"/>
<path fill="#EFEDF0" opacity="1.000000" stroke="none" 
	d="
M309.134705,585.260254 
	C310.978516,584.474670 312.466827,583.845276 314.104645,583.152649 
	C314.348938,583.876526 314.636963,584.315979 314.621216,584.744263 
	C314.245880,594.962952 317.144745,593.830811 305.365021,597.130432 
	C286.409271,602.439941 268.271851,601.343628 253.210876,586.769043 
	C239.020172,573.036560 234.789047,547.487976 242.996552,527.553284 
	C251.168396,507.705109 268.228302,495.925140 289.566376,496.055420 
	C296.317078,496.096619 303.065979,497.464447 309.803009,498.324554 
	C313.778534,498.832062 315.540924,501.021027 314.863586,505.176147 
	C314.547363,507.115875 314.809509,509.149872 314.809509,511.101074 
	C308.729370,509.524475 302.938171,507.535919 296.981110,506.564545 
	C274.384338,502.879883 254.007950,518.625000 252.170380,541.501892 
	C251.605515,548.534119 251.765564,556.000610 253.515045,562.771790 
	C258.655609,582.667908 276.461975,592.746399 297.792633,588.628967 
	C301.522552,587.908936 305.120392,586.504700 309.134705,585.260254 
z"/>
<path fill="#EFEEF0" opacity="1.000000" stroke="none" 
	d="
M334.885681,585.050293 
	C326.770966,571.852539 326.137329,558.265747 331.752258,544.543884 
	C338.569489,527.883789 354.011383,521.418030 373.052124,524.307861 
	C388.104370,526.592346 398.852081,540.407776 399.081665,557.079285 
	C399.161072,562.847534 399.025177,568.885193 397.449066,574.356628 
	C393.658844,587.514221 384.896942,596.265442 371.196808,598.934448 
	C356.543060,601.789246 344.201935,597.634033 334.885681,585.050293 
M358.437378,589.424683 
	C373.063599,592.061462 383.396393,586.374817 386.155853,572.317505 
	C387.603363,564.943665 387.376099,556.532898 385.317261,549.330078 
	C381.340881,535.418579 366.257660,529.849487 353.536346,536.444092 
	C344.645966,541.052795 341.466705,549.262756 340.371521,558.573547 
	C338.643921,573.261230 345.460052,585.289978 358.437378,589.424683 
z"/>
<path fill="#EFEEF0" opacity="1.000000" stroke="none" 
	d="
M417.550446,591.819580 
	C417.550842,569.732300 417.550842,548.120422 417.550842,526.250854 
	C421.743927,526.250854 425.476593,526.250854 429.601868,526.250854 
	C429.601868,530.073608 429.601868,533.682312 429.601868,538.792969 
	C431.184448,536.477173 431.951019,535.358337 432.714600,534.237488 
	C436.931702,528.047546 442.437103,524.494019 450.278015,524.808533 
	C454.127106,524.962891 455.766083,526.208252 455.265869,530.155396 
	C455.000122,532.252319 455.218811,534.410645 455.218811,536.615234 
	C439.122803,533.899048 430.505493,540.776489 429.910156,557.012634 
	C429.483398,568.649780 429.795197,580.314026 429.778412,591.966187 
	C429.775818,593.768005 429.778046,595.569763 429.778046,597.682495 
	C425.610321,597.682495 421.865601,597.682495 417.550049,597.682495 
	C417.550049,595.878601 417.550049,594.086853 417.550446,591.819580 
z"/>
<path fill="#FDFCFE" opacity="1.000000" stroke="none" 
	d="
M101.328102,443.367767 
	C93.595490,449.280029 85.583946,449.488586 79.133820,444.196472 
	C72.982140,439.149231 71.011810,430.474182 74.655373,423.448547 
	C77.907921,417.176880 83.037193,413.670807 90.310387,413.904663 
	C97.570442,414.138123 102.570023,417.979584 105.404686,424.370056 
	C108.498848,431.345520 106.897881,437.683105 101.328102,443.367767 
z"/>
<path fill="#FDFDFE" opacity="1.000000" stroke="none" 
	d="
M80.205048,149.245972 
	C81.052711,147.330002 82.168526,145.750107 83.594711,144.056396 
	C82.761124,145.822418 81.617165,147.702240 80.205048,149.245972 
z"/>
<path fill="#FDFDFE" opacity="1.000000" stroke="none" 
	d="
M625.812378,685.733643 
	C624.608887,687.341064 623.161011,688.586731 621.401489,689.947876 
	C622.582642,688.499512 624.075317,686.935669 625.812378,685.733643 
z"/>
<path fill="#FDFDFE" opacity="1.000000" stroke="none" 
	d="
M84.200775,144.241776 
	C84.746552,142.975204 85.556351,142.040558 86.666206,141.007843 
	C86.132439,142.131088 85.298622,143.352402 84.200775,144.241776 
z"/>
<path fill="#FDFDFE" opacity="1.000000" stroke="none" 
	d="
M628.709229,682.899902 
	C628.285950,683.979431 627.482910,684.919861 626.385010,685.961731 
	C626.836609,684.962341 627.583008,683.861572 628.709229,682.899902 
z"/>
<path fill="#FDFDFE" opacity="1.000000" stroke="none" 
	d="
M87.251259,141.029709 
	C87.092491,140.665070 87.280304,140.349304 87.735329,139.933365 
	C87.867638,140.248337 87.732735,140.663452 87.251259,141.029709 
z"/>
<path fill="#FDFDFE" opacity="1.000000" stroke="none" 
	d="
M629.825806,681.973755 
	C629.979553,682.311462 629.775696,682.624756 629.297424,683.016724 
	C629.171448,682.713379 629.319824,682.331421 629.825806,681.973755 
z"/>
<path fill="#FEFEFF" opacity="1.000000" stroke="none" 
	d="
M643.000000,226.145416 
	C653.132202,226.145447 662.764343,226.145447 672.696960,226.145447 
	C672.696960,233.931580 672.696960,241.330688 672.696960,249.307022 
	C651.710388,249.307022 630.821289,249.307022 609.376709,249.307022 
	C609.376709,314.762787 609.376709,379.648773 609.376709,444.766663 
	C600.717285,444.766663 592.621216,444.766663 584.013672,444.766663 
	C584.013672,379.782471 584.013672,314.887848 584.013672,249.547180 
	C562.909363,249.547180 542.305115,249.547180 521.342407,249.547180 
	C521.342407,241.697601 521.342407,234.282074 521.342407,226.145370 
	C561.655457,226.145370 602.077759,226.145370 643.000000,226.145416 
z"/>
<path fill="#71489F" opacity="1.000000" stroke="none" 
	d="
M428.981201,420.473633 
	C423.249634,420.804901 417.469513,420.804901 411.122009,420.804901 
	C411.122009,415.052734 411.122009,409.464417 411.224121,403.414673 
	C417.195038,408.682922 423.063812,414.412659 428.981201,420.473633 
z"/>
<path fill="#6F449D" opacity="1.000000" stroke="none" 
	d="
M475.668701,554.925781 
	C476.225311,541.349365 488.143097,531.837219 500.229309,534.798096 
	C508.692596,536.871338 513.568542,544.200317 513.347534,555.147339 
	C500.927765,555.147339 488.488190,555.147339 475.668701,554.925781 
z"/>
<path fill="#6E449D" opacity="1.000000" stroke="none" 
	d="
M358.036713,589.311707 
	C345.460052,585.289978 338.643921,573.261230 340.371521,558.573547 
	C341.466705,549.262756 344.645966,541.052795 353.536346,536.444092 
	C366.257660,529.849487 381.340881,535.418579 385.317261,549.330078 
	C387.376099,556.532898 387.603363,564.943665 386.155853,572.317505 
	C383.396393,586.374817 373.063599,592.061462 358.036713,589.311707 
z"/>
</svg>